<svg width="24" height="24" fill="none" xmlns="http://www.w3.org/2000/svg"><path d="M23 4H1v16h22V4z" fill="#16216B"/><path fill-rule="evenodd" clip-rule="evenodd" d="M12.98 14.5c-.99 0-1.64-.29-2.11-.55l.66-.94c.42.22.75.47 1.51.47.24 0 .48-.06.61-.27.19-.31-.04-.48-.59-.76l-.27-.16c-.81-.51-1.16-.99-.78-1.84.24-.54.89-.95 1.94-.95.73 0 1.42.29 1.81.58l-.76.83c-.39-.29-.71-.44-1.08-.44-.29 0-.52.1-.6.25-.15.27.05.45.47.69l.32.19c.98.57 1.21 1.17.97 1.73-.41.95-1.24 1.17-2.1 1.17zm5.64-2.94c-.02-.35-.03-.83 0-1.12h-.02c-.08.24-1.13 2.34-1.13 2.34h1.22l-.07-1.22zm.16 2.8l-.04-.71H17l-.36.71h-1.52l2.75-4.75h1.86l.47 4.75h-1.42zM7.93 9.61l-1.26 2.02c-.32.53-.51.8-.6 1.13h-.01c.02-.42-.04-.94-.05-1.24l-.14-1.91H3.52l-.02.13c.6 0 .96.28 1.06.85l.46 3.78h1.45l2.92-4.76H7.93zm.62 4.75l1.56-4.76h1.4l-1.56 4.76h-1.4z" fill="#fff"/></svg>