<svg xmlns="http://www.w3.org/2000/svg" xmlns:xlink="http://www.w3.org/1999/xlink" id="svg" version="1.1" width="400" height="348.6033519553073" viewBox="0, 0, 400,348.6033519553073"><g id="svgg"><path id="path0" d="M192.851 83.899 C 186.360 84.622,181.838 85.226,179.948 85.622 C 178.701 85.884,177.053 86.197,176.286 86.318 C 171.505 87.073,159.033 90.877,153.348 93.314 C 149.379 95.016,144.222 97.447,142.633 98.366 C 134.721 102.939,131.407 105.129,126.662 108.921 C 100.475 129.848,86.911 162.368,91.220 193.892 C 91.789 198.048,91.984 198.961,93.782 205.845 C 99.243 226.753,115.959 249.179,134.503 260.477 C 151.358 270.745,166.395 276.201,185.179 278.864 C 191.640 279.780,212.864 279.785,218.832 278.871 C 242.180 275.298,260.560 267.869,276.982 255.367 C 280.146 252.958,280.004 251.847,276.199 249.245 C 275.336 248.655,273.541 247.099,272.212 245.787 C 270.882 244.475,269.096 242.895,268.242 242.276 C 267.389 241.657,265.144 239.699,263.253 237.925 C 261.363 236.151,259.657 234.699,259.464 234.699 C 259.271 234.699,257.503 233.194,255.537 231.354 C 253.571 229.514,251.412 227.598,250.741 227.096 C 250.070 226.595,248.630 225.354,247.541 224.339 C 245.081 222.046,245.044 222.047,241.183 224.544 C 219.655 238.467,192.859 239.966,170.036 228.523 C 142.585 214.760,132.149 182.396,146.894 156.757 C 165.149 125.016,213.750 117.412,244.711 141.454 C 247.438 143.572,247.563 143.535,252.357 139.233 C 258.131 134.052,263.506 129.329,267.079 126.298 C 268.738 124.891,271.123 122.772,272.379 121.590 C 273.635 120.409,276.185 118.145,278.046 116.559 C 282.751 112.551,282.743 112.519,275.850 107.314 C 263.870 98.266,249.570 91.584,233.304 87.432 C 228.843 86.293,226.848 85.923,217.786 84.553 C 214.148 84.003,196.153 83.531,192.851 83.899 M194.223 157.417 C 162.232 166.961,172.625 208.210,206.141 204.721 C 225.170 202.740,236.141 183.040,226.345 168.442 C 220.011 159.002,205.549 154.038,194.223 157.417 " stroke="none" fill="#45aca0" fill-rule="evenodd"/></g></svg>