<svg id="svg" version="1.1" xmlns="http://www.w3.org/2000/svg" xmlns:xlink="http://www.w3.org/1999/xlink" width="400" height="321.264367816092" viewBox="0, 0, 400,321.264367816092"><g id="svgg"><path id="path0" d="M192.771 44.293 C 192.771 44.445,190.279 44.675,187.234 44.804 C 184.188 44.933,181.451 45.170,181.150 45.330 C 180.850 45.491,180.089 45.622,179.459 45.622 C 178.829 45.622,178.313 45.767,178.313 45.944 C 178.313 46.120,177.590 46.265,176.707 46.265 C 175.823 46.265,175.100 46.410,175.100 46.586 C 175.100 46.763,174.305 46.908,173.333 46.908 C 172.361 46.908,171.566 47.034,171.566 47.187 C 171.566 47.341,170.703 47.565,169.648 47.684 C 168.593 47.804,167.645 48.039,167.541 48.208 C 167.437 48.376,166.999 48.514,166.567 48.514 C 166.136 48.514,165.783 48.659,165.783 48.835 C 165.783 49.012,165.277 49.157,164.659 49.157 C 164.040 49.157,163.534 49.301,163.534 49.478 C 163.534 49.655,163.028 49.799,162.410 49.799 C 161.791 49.799,161.285 49.927,161.285 50.084 C 161.285 50.241,160.635 50.466,159.839 50.586 C 159.044 50.705,158.394 50.938,158.394 51.104 C 158.394 51.270,158.104 51.406,157.751 51.406 C 157.398 51.406,157.108 51.550,157.108 51.727 C 157.108 51.904,156.747 52.048,156.305 52.048 C 155.863 52.048,155.502 52.176,155.502 52.333 C 155.502 52.490,154.855 52.715,154.064 52.833 C 153.273 52.952,152.541 53.185,152.438 53.352 C 152.335 53.518,151.971 53.655,151.628 53.655 C 151.285 53.655,151.004 53.799,151.004 53.976 C 151.004 54.153,150.715 54.297,150.361 54.297 C 150.008 54.297,149.719 54.442,149.719 54.618 C 149.719 54.795,149.430 54.940,149.076 54.940 C 148.723 54.940,148.434 55.073,148.434 55.236 C 148.434 55.398,147.964 55.623,147.390 55.736 C 146.028 56.003,144.866 56.564,144.219 57.267 C 143.934 57.577,143.536 57.831,143.336 57.831 C 143.136 57.831,142.972 57.963,142.972 58.124 C 142.972 58.286,142.394 58.515,141.687 58.635 C 140.980 58.754,140.402 58.984,140.402 59.145 C 140.402 59.306,140.217 59.438,139.991 59.438 C 139.765 59.438,139.371 59.727,139.116 60.080 C 138.862 60.434,138.396 60.723,138.082 60.723 C 137.767 60.723,137.510 60.852,137.510 61.009 C 137.510 61.167,137.149 61.387,136.707 61.497 C 136.265 61.608,135.904 61.841,135.904 62.014 C 135.904 62.187,135.624 62.329,135.283 62.329 C 134.941 62.329,134.570 62.618,134.458 62.972 C 134.346 63.325,133.992 63.614,133.672 63.614 C 133.352 63.614,132.911 63.831,132.691 64.096 C 132.471 64.361,132.124 64.578,131.919 64.578 C 131.715 64.578,131.339 64.867,131.084 65.221 C 130.830 65.574,130.429 65.863,130.195 65.863 C 129.960 65.863,129.434 66.225,129.024 66.667 C 128.615 67.108,128.075 67.470,127.825 67.470 C 127.575 67.470,127.162 67.759,126.908 68.112 C 126.653 68.466,126.326 68.755,126.181 68.755 C 125.864 68.755,125.179 69.299,124.257 70.281 C 123.884 70.679,123.448 71.004,123.288 71.004 C 123.128 71.004,122.234 71.785,121.303 72.739 C 120.371 73.693,119.336 74.526,119.001 74.589 C 118.664 74.654,118.348 75.026,118.291 75.425 C 118.234 75.821,117.975 76.145,117.715 76.145 C 117.118 76.145,111.165 82.105,111.165 82.702 C 111.165 82.945,110.803 83.234,110.361 83.345 C 109.920 83.456,109.558 83.757,109.558 84.015 C 109.558 84.273,108.763 85.267,107.791 86.223 C 106.819 87.180,106.024 88.057,106.024 88.173 C 106.024 88.288,105.699 88.731,105.301 89.156 C 104.222 90.310,103.775 90.875,103.775 91.085 C 103.775 91.189,103.414 91.636,102.972 92.077 C 102.530 92.519,102.169 93.059,102.169 93.277 C 102.169 93.495,101.880 93.882,101.526 94.137 C 101.173 94.391,100.884 94.804,100.884 95.053 C 100.884 95.303,100.615 95.741,100.287 96.027 C 99.959 96.312,99.588 96.871,99.462 97.269 C 99.337 97.667,99.099 97.992,98.934 97.992 C 98.769 97.992,98.635 98.271,98.635 98.613 C 98.635 98.954,98.345 99.326,97.992 99.438 C 97.639 99.550,97.349 99.921,97.349 100.263 C 97.349 100.604,97.208 100.884,97.034 100.884 C 96.861 100.884,96.628 101.245,96.517 101.687 C 96.407 102.129,96.187 102.490,96.029 102.490 C 95.872 102.490,95.743 102.747,95.743 103.062 C 95.743 103.376,95.454 103.842,95.100 104.096 C 94.747 104.351,94.458 104.744,94.458 104.971 C 94.458 105.197,94.329 105.382,94.172 105.382 C 94.015 105.382,93.792 105.888,93.676 106.506 C 93.560 107.124,93.327 107.631,93.158 107.631 C 92.989 107.631,92.851 107.888,92.851 108.202 C 92.851 108.517,92.563 108.982,92.210 109.236 C 91.858 109.490,91.480 110.173,91.371 110.753 C 91.262 111.333,91.045 111.807,90.888 111.807 C 90.731 111.807,90.602 112.169,90.602 112.610 C 90.602 113.052,90.458 113.414,90.281 113.414 C 90.104 113.414,89.960 113.703,89.960 114.056 C 89.960 114.410,89.849 114.699,89.714 114.699 C 89.379 114.699,88.353 117.122,88.353 117.914 C 88.353 118.266,88.209 118.554,88.032 118.554 C 87.855 118.554,87.711 118.843,87.711 119.197 C 87.711 119.550,87.566 119.839,87.390 119.839 C 87.213 119.839,87.068 120.201,87.068 120.643 C 87.068 121.084,86.924 121.446,86.747 121.446 C 86.570 121.446,86.426 121.867,86.426 122.383 C 86.426 122.898,86.272 123.371,86.084 123.434 C 85.896 123.497,85.660 124.159,85.559 124.907 C 85.459 125.654,85.252 126.265,85.098 126.265 C 84.945 126.265,84.819 126.627,84.819 127.068 C 84.819 127.510,84.675 127.871,84.498 127.871 C 84.321 127.871,84.177 128.378,84.177 128.996 C 84.177 129.614,84.032 130.120,83.855 130.120 C 83.679 130.120,83.534 130.554,83.534 131.084 C 83.534 131.614,83.408 132.048,83.254 132.048 C 83.100 132.048,82.876 132.916,82.756 133.976 C 82.637 135.036,82.401 135.904,82.233 135.904 C 82.065 135.904,81.928 136.554,81.928 137.349 C 81.928 138.145,81.783 138.795,81.606 138.795 C 81.430 138.795,81.285 139.434,81.285 140.214 C 81.285 140.995,81.150 141.681,80.986 141.740 C 80.821 141.799,80.584 143.618,80.458 145.783 C 80.333 147.948,80.106 149.719,79.954 149.719 C 79.803 149.719,79.679 150.514,79.679 151.486 C 79.679 152.458,79.534 153.253,79.357 153.253 C 79.153 153.253,79.036 155.823,79.036 160.321 C 79.036 166.123,79.116 167.390,79.480 167.390 C 79.725 167.390,80.491 167.956,81.183 168.648 C 82.574 170.040,84.063 170.495,86.021 170.127 C 87.438 169.861,90.602 166.875,90.602 165.804 C 90.602 165.439,90.747 165.141,90.924 165.141 C 91.342 165.141,91.342 163.953,90.924 163.695 C 90.534 163.454,90.487 157.108,90.875 157.108 C 91.025 157.108,91.248 154.976,91.370 152.369 C 91.493 149.763,91.731 147.582,91.901 147.523 C 92.070 147.465,92.209 146.778,92.209 145.997 C 92.209 145.217,92.353 144.578,92.530 144.578 C 92.707 144.578,92.851 144.081,92.851 143.473 C 92.851 142.865,92.979 142.289,93.135 142.192 C 93.290 142.096,93.519 140.931,93.644 139.603 C 93.768 138.275,94.002 137.189,94.164 137.189 C 94.326 137.189,94.458 136.610,94.458 135.904 C 94.458 135.197,94.602 134.618,94.779 134.618 C 94.956 134.618,95.100 134.257,95.100 133.815 C 95.100 133.373,95.245 133.012,95.422 133.012 C 95.598 133.012,95.743 132.651,95.743 132.209 C 95.743 131.767,95.871 131.406,96.027 131.406 C 96.184 131.406,96.411 130.610,96.532 129.639 C 96.654 128.667,96.887 127.871,97.051 127.871 C 97.215 127.871,97.349 127.510,97.349 127.068 C 97.349 126.627,97.494 126.265,97.671 126.265 C 97.847 126.265,97.992 125.976,97.992 125.622 C 97.992 125.269,98.101 124.980,98.235 124.980 C 98.540 124.980,99.157 123.538,99.436 122.169 C 99.554 121.594,99.783 121.124,99.945 121.124 C 100.108 121.124,100.241 120.835,100.241 120.482 C 100.241 120.129,100.386 119.839,100.562 119.839 C 100.739 119.839,100.884 119.550,100.884 119.197 C 100.884 118.843,101.028 118.554,101.205 118.554 C 101.382 118.554,101.526 118.337,101.526 118.072 C 101.526 117.807,101.655 117.590,101.812 117.590 C 101.969 117.590,102.192 117.084,102.308 116.466 C 102.424 115.847,102.657 115.341,102.826 115.341 C 102.995 115.341,103.133 115.084,103.133 114.770 C 103.133 114.455,103.421 113.990,103.774 113.736 C 104.126 113.482,104.504 112.799,104.613 112.219 C 104.721 111.639,104.939 111.165,105.096 111.165 C 105.253 111.165,105.382 110.948,105.382 110.683 C 105.382 110.418,105.526 110.201,105.703 110.201 C 105.880 110.201,106.024 109.965,106.024 109.676 C 106.024 109.388,106.293 108.918,106.621 108.632 C 106.949 108.346,107.320 107.787,107.446 107.390 C 107.571 106.992,107.809 106.667,107.973 106.667 C 108.138 106.667,108.273 106.378,108.273 106.024 C 108.273 105.671,108.418 105.382,108.594 105.382 C 108.771 105.382,108.916 105.218,108.916 105.018 C 108.916 104.817,109.182 104.420,109.508 104.134 C 109.834 103.848,110.369 103.036,110.697 102.329 C 111.024 101.622,111.553 100.810,111.871 100.525 C 112.189 100.239,112.450 99.846,112.450 99.652 C 112.450 99.457,112.956 98.793,113.574 98.174 C 114.193 97.556,114.699 96.966,114.699 96.865 C 114.699 96.647,115.037 96.237,116.859 94.248 C 117.606 93.433,118.302 92.496,118.407 92.166 C 118.512 91.836,118.728 91.566,118.886 91.566 C 119.045 91.566,119.691 91.024,120.321 90.361 C 120.952 89.699,121.571 89.052,121.697 88.924 C 121.824 88.797,122.289 88.328,122.731 87.884 C 123.173 87.439,123.857 86.748,124.252 86.349 C 124.647 85.949,125.297 85.318,125.698 84.945 C 126.098 84.573,126.639 83.958,126.899 83.579 C 127.159 83.200,127.665 82.801,128.024 82.693 C 128.382 82.584,129.144 82.006,129.718 81.409 C 130.292 80.811,130.889 80.321,131.045 80.321 C 131.201 80.321,131.924 79.743,132.652 79.036 C 133.381 78.329,134.114 77.751,134.283 77.751 C 134.451 77.751,134.951 77.390,135.392 76.948 C 135.834 76.506,136.419 76.145,136.692 76.145 C 136.965 76.145,137.189 76.000,137.189 75.823 C 137.189 75.647,137.406 75.502,137.671 75.502 C 137.936 75.502,138.153 75.285,138.153 75.020 C 138.153 74.755,138.415 74.538,138.735 74.538 C 139.055 74.538,139.627 74.249,140.006 73.896 C 140.386 73.542,140.919 73.253,141.191 73.253 C 141.464 73.253,141.687 73.141,141.687 73.005 C 141.687 72.868,142.193 72.484,142.811 72.151 C 143.430 71.818,143.936 71.424,143.936 71.275 C 143.936 71.126,144.215 71.004,144.557 71.004 C 144.898 71.004,145.269 70.715,145.382 70.361 C 145.494 70.008,145.792 69.719,146.044 69.719 C 146.697 69.719,149.076 68.651,149.076 68.358 C 149.076 68.223,149.365 68.112,149.719 68.112 C 150.072 68.112,150.361 67.968,150.361 67.791 C 150.361 67.614,150.578 67.470,150.843 67.470 C 151.108 67.470,151.325 67.325,151.325 67.149 C 151.325 66.972,151.604 66.827,151.945 66.827 C 152.286 66.827,152.781 66.610,153.046 66.345 C 153.312 66.080,153.828 65.863,154.194 65.863 C 154.560 65.863,154.859 65.719,154.859 65.542 C 154.859 65.365,155.221 65.221,155.663 65.221 C 156.104 65.221,156.466 65.076,156.466 64.900 C 156.466 64.723,156.755 64.578,157.108 64.578 C 157.462 64.578,157.751 64.450,157.751 64.294 C 157.751 64.137,158.402 63.911,159.197 63.792 C 159.992 63.673,160.643 63.439,160.643 63.273 C 160.643 63.108,161.004 62.972,161.446 62.972 C 161.888 62.972,162.249 62.827,162.249 62.651 C 162.249 62.474,162.538 62.329,162.892 62.329 C 163.245 62.329,163.534 62.185,163.534 62.008 C 163.534 61.831,163.967 61.687,164.496 61.687 C 165.536 61.687,168.032 60.726,168.032 60.326 C 168.032 60.191,168.538 60.080,169.157 60.080 C 169.775 60.080,170.281 59.936,170.281 59.759 C 170.281 59.582,170.715 59.438,171.245 59.438 C 171.775 59.438,172.209 59.312,172.209 59.158 C 172.209 59.004,173.365 58.777,174.779 58.654 C 176.193 58.531,177.349 58.295,177.349 58.131 C 177.349 57.966,178.000 57.831,178.795 57.831 C 179.590 57.831,180.241 57.687,180.241 57.510 C 180.241 57.333,180.892 57.189,181.687 57.189 C 182.482 57.189,183.133 57.044,183.133 56.867 C 183.133 56.684,184.087 56.546,185.355 56.546 C 186.777 56.546,187.622 56.410,187.703 56.167 C 187.892 55.601,210.816 55.579,211.004 56.145 C 211.095 56.418,211.900 56.546,213.521 56.546 C 214.895 56.546,215.904 56.682,215.904 56.867 C 215.904 57.044,216.554 57.189,217.349 57.189 C 218.145 57.189,218.795 57.333,218.795 57.510 C 218.795 57.687,219.301 57.831,219.920 57.831 C 220.538 57.831,221.044 57.957,221.044 58.111 C 221.044 58.265,222.201 58.492,223.614 58.615 C 225.028 58.738,226.185 58.974,226.185 59.139 C 226.185 59.303,226.691 59.438,227.309 59.438 C 227.928 59.438,228.434 59.582,228.434 59.759 C 228.434 59.936,228.795 60.080,229.237 60.080 C 229.679 60.080,230.040 60.225,230.040 60.402 C 230.040 60.578,230.321 60.723,230.664 60.723 C 231.007 60.723,231.369 60.855,231.469 61.016 C 231.568 61.178,232.228 61.407,232.933 61.526 C 233.639 61.646,234.217 61.875,234.217 62.036 C 234.217 62.197,234.578 62.329,235.020 62.329 C 235.462 62.329,235.823 62.474,235.823 62.651 C 235.823 62.827,236.112 62.972,236.466 62.972 C 236.819 62.972,237.108 63.108,237.108 63.273 C 237.108 63.439,237.759 63.673,238.554 63.792 C 239.349 63.911,240.000 64.137,240.000 64.294 C 240.000 64.450,240.361 64.578,240.803 64.578 C 241.245 64.578,241.606 64.723,241.606 64.900 C 241.606 65.076,241.896 65.221,242.249 65.221 C 242.602 65.221,242.892 65.365,242.892 65.542 C 242.892 65.719,243.108 65.863,243.373 65.863 C 243.639 65.863,243.855 65.995,243.855 66.156 C 243.855 66.318,244.434 66.547,245.141 66.667 C 245.847 66.786,246.426 67.016,246.426 67.177 C 246.426 67.338,246.643 67.470,246.908 67.470 C 247.173 67.470,247.390 67.614,247.390 67.791 C 247.390 67.968,247.644 68.112,247.955 68.112 C 248.266 68.112,248.696 68.394,248.911 68.739 C 249.127 69.084,249.807 69.460,250.424 69.576 C 251.120 69.707,251.618 70.017,251.738 70.395 C 251.844 70.730,252.210 71.004,252.552 71.004 C 252.893 71.004,253.173 71.149,253.173 71.325 C 253.173 71.502,253.446 71.647,253.781 71.647 C 254.115 71.647,254.472 71.863,254.574 72.129 C 254.676 72.394,255.021 72.610,255.341 72.610 C 255.661 72.610,256.131 72.900,256.386 73.253 C 256.640 73.606,256.972 73.896,257.122 73.896 C 257.272 73.896,257.612 74.112,257.877 74.378 C 258.142 74.643,258.628 74.859,258.957 74.859 C 259.286 74.859,259.646 75.145,259.756 75.494 C 259.984 76.211,261.298 77.225,262.476 77.591 C 262.910 77.726,263.802 78.395,264.459 79.079 C 265.115 79.762,265.813 80.321,266.009 80.321 C 266.205 80.321,266.897 80.900,267.547 81.606 C 268.197 82.313,268.956 82.892,269.233 82.892 C 269.511 82.892,269.950 83.201,270.210 83.578 C 270.470 83.956,271.006 84.571,271.402 84.944 C 272.305 85.795,273.367 86.845,274.280 87.786 C 275.210 88.744,275.911 89.317,276.154 89.317 C 276.454 89.317,277.269 90.197,277.269 90.522 C 277.269 90.679,277.631 91.122,278.072 91.506 C 279.178 92.467,279.085 93.045,277.590 94.495 C 276.884 95.181,276.305 95.877,276.305 96.042 C 276.305 96.206,275.980 96.387,275.582 96.444 C 275.185 96.500,274.717 96.871,274.542 97.269 C 274.368 97.667,274.108 97.992,273.965 97.992 C 273.668 97.992,272.129 99.473,272.129 99.759 C 272.129 100.036,271.212 101.006,267.622 104.527 C 266.390 105.736,265.382 106.846,265.382 106.995 C 265.382 107.144,265.092 107.358,264.739 107.470 C 264.305 107.608,264.096 107.956,264.096 108.542 C 264.096 109.494,262.380 111.304,249.070 124.377 C 241.288 132.021,241.453 131.916,239.818 130.281 C 239.199 129.663,238.539 129.157,238.351 129.157 C 238.163 129.157,237.604 128.723,237.108 128.193 C 236.613 127.663,236.084 127.229,235.932 127.229 C 235.780 127.229,235.266 126.867,234.790 126.426 C 234.313 125.984,233.700 125.622,233.428 125.622 C 233.155 125.622,232.932 125.478,232.932 125.301 C 232.932 125.124,232.715 124.980,232.450 124.980 C 232.185 124.980,231.968 124.838,231.968 124.665 C 231.968 124.491,231.570 124.251,231.084 124.131 C 230.598 124.011,229.967 123.647,229.681 123.322 C 229.395 122.997,228.998 122.731,228.798 122.731 C 228.597 122.731,228.434 122.586,228.434 122.410 C 228.434 122.233,228.145 122.088,227.791 122.088 C 227.438 122.088,227.149 121.945,227.149 121.771 C 227.149 121.596,226.583 121.363,225.891 121.252 C 225.035 121.115,224.584 120.858,224.476 120.445 C 224.372 120.048,224.030 119.839,223.484 119.839 C 223.026 119.839,222.651 119.695,222.651 119.518 C 222.651 119.341,222.398 119.195,222.088 119.192 C 221.779 119.189,220.948 118.979,220.241 118.724 C 219.534 118.469,218.486 118.255,217.912 118.247 C 217.337 118.239,216.867 118.088,216.867 117.912 C 216.867 117.735,216.651 117.590,216.386 117.590 C 216.120 117.590,215.904 117.446,215.904 117.269 C 215.904 117.092,215.470 116.948,214.940 116.948 C 214.410 116.948,213.976 116.803,213.976 116.627 C 213.976 116.450,213.325 116.305,212.530 116.305 C 211.735 116.305,211.084 116.179,211.084 116.025 C 211.084 115.872,209.928 115.645,208.514 115.521 C 207.100 115.398,205.944 115.163,205.944 114.998 C 205.944 114.833,205.221 114.699,204.337 114.699 C 203.454 114.699,202.731 114.554,202.731 114.378 C 202.731 113.941,189.667 113.941,189.398 114.378 C 189.288 114.554,188.702 114.699,188.093 114.699 C 187.485 114.699,186.988 114.823,186.988 114.974 C 186.988 115.126,185.506 115.351,183.695 115.474 C 181.884 115.598,180.353 115.836,180.295 116.002 C 180.236 116.169,179.693 116.305,179.090 116.305 C 178.486 116.305,177.992 116.450,177.992 116.627 C 177.992 116.803,177.486 116.948,176.867 116.948 C 176.249 116.948,175.743 117.092,175.743 117.269 C 175.743 117.446,175.454 117.590,175.100 117.590 C 174.747 117.590,174.458 117.715,174.458 117.867 C 174.458 118.019,173.700 118.233,172.773 118.343 C 171.846 118.453,171.039 118.690,170.979 118.870 C 170.919 119.050,170.521 119.197,170.094 119.197 C 169.667 119.197,169.317 119.341,169.317 119.518 C 169.317 119.695,168.956 119.839,168.514 119.839 C 168.072 119.839,167.711 119.984,167.711 120.161 C 167.711 120.337,167.422 120.482,167.068 120.482 C 166.715 120.482,166.426 120.610,166.426 120.767 C 166.426 120.924,165.920 121.148,165.301 121.264 C 164.683 121.380,164.177 121.613,164.177 121.782 C 164.177 121.950,163.888 122.088,163.534 122.088 C 163.181 122.088,162.892 122.233,162.892 122.410 C 162.892 122.586,162.675 122.731,162.410 122.731 C 162.145 122.731,161.928 122.876,161.928 123.052 C 161.928 123.229,161.639 123.373,161.285 123.373 C 160.932 123.373,160.643 123.508,160.643 123.673 C 160.643 123.838,160.317 124.075,159.920 124.201 C 159.522 124.327,158.963 124.698,158.677 125.026 C 158.391 125.354,157.922 125.622,157.633 125.622 C 157.344 125.622,157.108 125.757,157.108 125.922 C 157.108 126.087,156.786 126.324,156.392 126.449 C 155.998 126.574,155.289 127.090,154.817 127.595 C 154.345 128.101,153.866 128.514,153.753 128.514 C 153.311 128.514,151.004 130.683,151.004 131.099 C 151.004 131.268,150.781 131.406,150.509 131.406 C 150.020 131.406,149.416 131.805,148.659 132.629 C 148.447 132.860,147.442 133.889,146.426 134.915 C 145.410 135.941,144.578 136.879,144.578 136.999 C 144.578 137.120,144.253 137.571,143.855 138.003 C 142.029 139.987,141.687 140.391,141.687 140.565 C 141.687 140.668,141.325 141.114,140.884 141.555 C 140.442 141.997,140.080 142.557,140.080 142.799 C 140.080 143.041,139.900 143.300,139.679 143.373 C 139.137 143.554,138.921 152.169,139.403 154.375 C 139.596 155.260,140.055 157.430,140.422 159.197 C 141.405 163.930,141.505 164.277,141.936 164.420 C 142.152 164.493,142.329 164.335,142.329 164.070 C 142.329 163.805,142.472 163.539,142.646 163.481 C 142.820 163.422,143.060 162.651,143.179 161.767 C 143.306 160.830,143.642 159.944,143.987 159.641 C 144.312 159.355,144.578 158.813,144.578 158.436 C 144.578 158.059,144.707 157.751,144.864 157.751 C 145.021 157.751,145.244 157.245,145.360 156.627 C 145.476 156.008,145.709 155.502,145.878 155.502 C 146.047 155.502,146.185 155.223,146.185 154.881 C 146.185 154.540,146.474 154.168,146.827 154.056 C 147.181 153.944,147.470 153.573,147.470 153.231 C 147.470 152.890,147.612 152.610,147.785 152.610 C 147.958 152.610,148.191 152.249,148.302 151.807 C 148.413 151.365,148.632 151.004,148.790 151.004 C 148.947 151.004,149.079 150.751,149.083 150.442 C 149.087 150.133,149.593 149.447,150.208 148.919 C 150.822 148.390,151.325 147.762,151.325 147.522 C 151.325 147.281,151.795 146.666,152.369 146.154 C 152.944 145.642,153.517 145.114,153.644 144.981 C 154.475 144.108,158.435 140.176,158.778 139.882 C 159.008 139.685,159.409 139.215,159.669 138.838 C 159.929 138.461,160.399 138.153,160.713 138.153 C 161.028 138.153,161.285 138.024,161.285 137.866 C 161.285 137.709,161.647 137.489,162.088 137.378 C 162.530 137.267,162.892 137.035,162.892 136.861 C 162.892 136.688,163.087 136.546,163.327 136.546 C 163.566 136.546,164.108 136.131,164.532 135.623 C 164.955 135.115,165.743 134.604,166.283 134.487 C 166.823 134.369,167.469 133.990,167.719 133.643 C 167.969 133.296,168.431 133.012,168.746 133.012 C 169.060 133.012,169.317 132.874,169.317 132.705 C 169.317 132.537,169.823 132.304,170.442 132.188 C 171.060 132.072,171.566 131.848,171.566 131.691 C 171.566 131.534,171.789 131.406,172.062 131.406 C 172.334 131.406,172.867 131.116,173.247 130.763 C 173.626 130.410,174.186 130.120,174.492 130.120 C 174.797 130.120,175.100 129.962,175.164 129.768 C 175.229 129.574,175.964 129.338,176.798 129.244 C 177.631 129.150,178.313 128.947,178.313 128.794 C 178.313 128.640,178.747 128.514,179.277 128.514 C 179.807 128.514,180.241 128.369,180.241 128.193 C 180.241 128.016,180.602 127.871,181.044 127.871 C 181.486 127.871,181.847 127.727,181.847 127.550 C 181.847 127.373,182.341 127.229,182.945 127.229 C 183.549 127.229,184.092 127.081,184.152 126.901 C 184.214 126.714,186.092 126.485,188.516 126.369 C 190.856 126.257,192.771 126.044,192.771 125.894 C 192.771 125.745,194.217 125.622,195.984 125.622 C 197.751 125.622,199.197 125.748,199.197 125.901 C 199.197 126.054,200.672 126.250,202.475 126.337 C 204.517 126.435,205.799 126.633,205.875 126.862 C 205.942 127.064,206.491 127.229,207.095 127.229 C 207.699 127.229,208.193 127.373,208.193 127.550 C 208.193 127.727,208.771 127.871,209.478 127.871 C 210.185 127.871,210.763 128.016,210.763 128.193 C 210.763 128.369,211.269 128.514,211.888 128.514 C 212.506 128.514,213.012 128.642,213.012 128.799 C 213.012 128.956,213.663 129.181,214.458 129.300 C 215.253 129.420,215.904 129.653,215.904 129.819 C 215.904 129.985,216.410 130.120,217.028 130.120 C 217.647 130.120,218.153 130.265,218.153 130.442 C 218.153 130.618,218.369 130.763,218.635 130.763 C 218.900 130.763,219.116 130.908,219.116 131.084 C 219.116 131.261,219.406 131.406,219.759 131.406 C 220.112 131.406,220.402 131.534,220.402 131.691 C 220.402 131.848,220.908 132.072,221.526 132.188 C 222.145 132.304,222.651 132.537,222.651 132.705 C 222.651 132.874,222.940 133.012,223.293 133.012 C 223.713 133.012,223.936 133.226,223.936 133.629 C 223.936 134.064,224.244 134.314,224.980 134.475 C 225.554 134.602,226.257 134.974,226.543 135.304 C 226.829 135.634,227.195 135.904,227.356 135.904 C 227.517 135.904,227.858 136.193,228.112 136.546 C 228.367 136.900,228.798 137.189,229.070 137.189 C 229.342 137.189,229.997 137.692,230.525 138.306 C 231.054 138.921,231.668 139.427,231.890 139.431 C 232.112 139.435,233.654 140.811,235.317 142.490 C 236.979 144.169,238.568 145.542,238.848 145.542 C 239.128 145.542,239.357 145.687,239.357 145.863 C 239.357 146.051,240.428 146.185,241.928 146.185 C 243.427 146.185,244.498 146.051,244.498 145.863 C 244.498 145.687,244.732 145.542,245.018 145.542 C 245.461 145.542,246.313 144.833,248.418 142.712 C 248.647 142.480,249.522 141.607,250.361 140.771 C 251.201 139.935,251.888 139.035,251.888 138.772 C 251.888 138.510,252.197 138.082,252.574 137.822 C 252.952 137.562,253.567 137.026,253.940 136.630 C 254.596 135.934,255.702 134.798,256.367 134.137 C 257.703 132.806,258.404 132.114,259.033 131.503 C 260.118 130.448,260.562 129.864,260.562 129.491 C 260.562 129.307,260.851 129.157,261.205 129.157 C 261.633 129.157,261.847 128.942,261.847 128.514 C 261.847 128.157,262.062 127.871,262.329 127.871 C 262.594 127.871,262.811 127.610,262.811 127.291 C 262.811 125.879,270.473 117.751,271.498 118.076 C 271.946 118.218,272.129 118.127,272.129 117.761 C 272.129 117.477,273.647 115.735,275.502 113.888 C 277.357 112.042,278.876 110.385,278.876 110.208 C 278.876 110.030,281.767 107.001,285.301 103.478 C 288.835 99.954,291.727 96.979,291.727 96.866 C 291.727 96.753,291.944 96.444,292.209 96.179 C 293.111 95.277,292.876 90.174,291.888 89.186 C 291.446 88.744,291.084 88.297,291.084 88.193 C 291.084 88.088,290.723 87.641,290.281 87.200 C 289.839 86.758,289.478 86.268,289.478 86.111 C 289.478 85.955,289.189 85.735,288.835 85.622 C 288.482 85.510,288.193 85.206,288.193 84.945 C 288.193 84.443,277.171 73.253,276.676 73.253 C 276.515 73.253,276.204 73.036,275.984 72.771 C 275.764 72.506,275.344 72.289,275.052 72.289 C 274.759 72.289,274.307 71.987,274.047 71.617 C 273.083 70.246,272.589 69.816,271.727 69.603 C 271.241 69.484,270.843 69.266,270.843 69.119 C 270.843 68.689,269.677 67.470,269.266 67.470 C 269.058 67.470,268.498 67.108,268.021 66.667 C 267.545 66.225,267.005 65.863,266.821 65.863 C 266.638 65.863,266.279 65.574,266.024 65.221 C 265.769 64.867,265.438 64.578,265.288 64.578 C 265.137 64.578,264.797 64.361,264.532 64.096 C 264.267 63.831,263.781 63.614,263.453 63.614 C 263.124 63.614,262.763 63.325,262.651 62.972 C 262.538 62.618,262.167 62.329,261.826 62.329 C 261.484 62.329,261.205 62.187,261.205 62.014 C 261.205 61.841,260.843 61.608,260.402 61.497 C 259.960 61.387,259.598 61.167,259.598 61.009 C 259.598 60.852,259.309 60.723,258.956 60.723 C 258.602 60.723,258.313 60.578,258.313 60.402 C 258.313 60.225,258.034 60.080,257.692 60.080 C 257.351 60.080,256.984 59.806,256.878 59.471 C 256.758 59.094,256.261 58.783,255.571 58.654 C 254.959 58.539,254.458 58.307,254.458 58.138 C 254.458 57.969,254.169 57.831,253.815 57.831 C 253.462 57.831,253.173 57.687,253.173 57.510 C 253.173 57.333,252.884 57.189,252.530 57.189 C 252.177 57.189,251.888 57.044,251.888 56.867 C 251.888 56.691,251.671 56.546,251.406 56.546 C 251.141 56.546,250.924 56.418,250.924 56.261 C 250.924 56.104,250.418 55.880,249.799 55.764 C 249.181 55.648,248.675 55.415,248.675 55.246 C 248.675 55.078,248.386 54.940,248.032 54.940 C 247.679 54.940,247.390 54.795,247.390 54.618 C 247.390 54.442,247.100 54.297,246.747 54.297 C 246.394 54.297,246.104 54.170,246.104 54.014 C 246.104 53.858,245.238 53.460,244.179 53.130 C 243.121 52.800,242.253 52.422,242.252 52.289 C 242.250 52.157,241.888 52.048,241.446 52.048 C 241.004 52.048,240.643 51.904,240.643 51.727 C 240.643 51.550,240.209 51.406,239.679 51.406 C 239.149 51.406,238.715 51.277,238.715 51.121 C 238.715 50.964,238.064 50.738,237.269 50.619 C 236.474 50.500,235.823 50.267,235.823 50.101 C 235.823 49.935,235.462 49.799,235.020 49.799 C 234.578 49.799,234.217 49.655,234.217 49.478 C 234.217 49.301,233.711 49.157,233.092 49.157 C 232.474 49.157,231.968 49.012,231.968 48.835 C 231.968 48.659,231.462 48.514,230.843 48.514 C 230.225 48.514,229.719 48.382,229.719 48.221 C 229.719 48.060,229.141 47.830,228.434 47.711 C 227.727 47.591,227.149 47.362,227.149 47.201 C 227.149 47.040,226.579 46.908,225.882 46.908 C 225.186 46.908,224.527 46.763,224.418 46.586 C 224.308 46.410,223.505 46.265,222.632 46.265 C 221.759 46.265,221.044 46.120,221.044 45.944 C 221.044 45.767,220.456 45.622,219.738 45.622 C 219.019 45.622,218.183 45.490,217.880 45.327 C 217.577 45.165,214.767 44.927,211.636 44.800 C 208.505 44.672,205.944 44.443,205.944 44.291 C 205.944 44.140,202.980 44.016,199.357 44.016 C 195.735 44.016,192.771 44.141,192.771 44.293 M277.899 160.256 C 276.079 161.202,275.341 161.740,275.341 162.121 C 275.341 162.318,274.980 162.752,274.538 163.083 C 273.756 163.671,273.412 165.141,274.056 165.141 C 274.233 165.141,274.378 165.936,274.378 166.908 C 274.378 167.880,274.255 168.675,274.106 168.675 C 273.956 168.675,273.743 170.589,273.631 172.929 C 273.515 175.354,273.286 177.231,273.099 177.294 C 272.919 177.354,272.771 178.041,272.771 178.822 C 272.771 179.602,272.627 180.241,272.450 180.241 C 272.273 180.241,272.129 180.892,272.129 181.687 C 272.129 182.482,271.984 183.133,271.807 183.133 C 271.631 183.133,271.486 183.639,271.486 184.257 C 271.486 184.876,271.352 185.382,271.188 185.382 C 271.024 185.382,270.790 186.177,270.669 187.149 C 270.547 188.120,270.320 188.916,270.164 188.916 C 270.007 188.916,269.880 189.133,269.880 189.398 C 269.880 189.663,269.735 189.880,269.558 189.880 C 269.382 189.880,269.237 190.313,269.237 190.843 C 269.237 191.373,269.092 191.807,268.916 191.807 C 268.739 191.807,268.594 192.169,268.594 192.610 C 268.594 193.052,268.466 193.414,268.309 193.414 C 268.152 193.414,267.928 193.920,267.812 194.538 C 267.696 195.157,267.463 195.663,267.295 195.663 C 267.126 195.663,266.988 195.952,266.988 196.305 C 266.988 196.659,266.843 196.948,266.667 196.948 C 266.490 196.948,266.345 197.165,266.345 197.430 C 266.345 197.695,266.219 197.912,266.064 197.912 C 265.910 197.912,265.699 198.334,265.596 198.850 C 265.484 199.406,265.141 199.872,264.752 199.996 C 264.390 200.111,264.096 200.482,264.096 200.825 C 264.096 201.166,263.952 201.446,263.775 201.446 C 263.598 201.446,263.454 201.735,263.454 202.088 C 263.454 202.442,263.329 202.731,263.177 202.731 C 263.025 202.731,262.955 203.056,263.023 203.454 C 263.142 204.157,262.768 204.825,260.241 208.426 C 258.798 210.483,256.801 212.691,256.384 212.691 C 256.206 212.691,254.172 214.570,251.863 216.867 C 249.555 219.165,247.562 221.044,247.434 221.044 C 247.307 221.044,246.666 221.550,246.010 222.169 C 245.354 222.787,244.611 223.293,244.358 223.293 C 244.106 223.293,243.807 223.582,243.695 223.935 C 243.583 224.288,243.103 224.673,242.629 224.790 C 242.155 224.907,241.533 225.268,241.247 225.594 C 240.962 225.919,240.564 226.185,240.364 226.185 C 240.164 226.185,240.000 226.329,240.000 226.506 C 240.000 226.683,239.845 226.827,239.656 226.827 C 239.466 226.827,239.110 227.008,238.864 227.229 C 237.749 228.228,237.425 228.434,236.961 228.434 C 236.689 228.434,236.466 228.578,236.466 228.755 C 236.466 228.932,236.311 229.076,236.122 229.076 C 235.932 229.076,235.561 229.293,235.295 229.558 C 235.030 229.823,234.535 230.040,234.194 230.040 C 233.853 230.040,233.574 230.185,233.574 230.361 C 233.574 230.538,233.357 230.683,233.092 230.683 C 232.827 230.683,232.610 230.827,232.610 231.004 C 232.610 231.181,232.350 231.325,232.032 231.325 C 231.314 231.325,229.725 232.043,229.721 232.369 C 229.720 232.502,229.466 232.611,229.157 232.612 C 228.847 232.614,228.180 232.830,227.674 233.094 C 227.168 233.358,226.481 233.574,226.148 233.574 C 225.815 233.574,225.542 233.719,225.542 233.896 C 225.542 234.072,225.181 234.217,224.739 234.217 C 224.297 234.217,223.936 234.361,223.936 234.538 C 223.936 234.715,223.502 234.859,222.972 234.859 C 222.442 234.859,222.008 234.985,222.008 235.139 C 222.008 235.293,221.141 235.517,220.080 235.637 C 219.020 235.757,218.153 235.993,218.153 236.161 C 218.153 236.328,217.791 236.466,217.349 236.466 C 216.908 236.466,216.546 236.610,216.546 236.787 C 216.546 236.964,215.968 237.108,215.261 237.108 C 214.554 237.108,213.976 237.253,213.976 237.430 C 213.976 237.608,213.128 237.751,212.075 237.751 C 211.029 237.751,210.126 237.889,210.067 238.057 C 210.008 238.226,207.683 238.464,204.900 238.588 C 202.116 238.711,199.839 238.935,199.839 239.085 C 199.839 239.459,195.223 239.431,194.843 239.055 C 194.676 238.888,192.695 238.650,190.442 238.526 C 188.189 238.402,186.345 238.176,186.345 238.025 C 186.345 237.874,185.776 237.751,185.079 237.751 C 184.383 237.751,183.724 237.606,183.614 237.430 C 183.505 237.253,182.918 237.108,182.310 237.108 C 181.702 237.108,181.205 236.964,181.205 236.787 C 181.205 236.610,180.711 236.466,180.107 236.466 C 179.503 236.466,178.958 236.312,178.895 236.124 C 178.833 235.936,178.170 235.700,177.423 235.600 C 176.676 235.499,176.064 235.292,176.064 235.138 C 176.064 234.985,175.847 234.859,175.582 234.859 C 175.317 234.859,175.100 234.715,175.100 234.538 C 175.100 234.361,174.667 234.217,174.137 234.217 C 173.606 234.217,173.173 234.072,173.173 233.896 C 173.173 233.719,172.956 233.574,172.691 233.574 C 172.426 233.574,172.209 233.446,172.209 233.289 C 172.209 233.132,171.703 232.908,171.084 232.792 C 170.466 232.676,169.960 232.443,169.960 232.275 C 169.960 232.106,169.671 231.968,169.317 231.968 C 168.964 231.968,168.675 231.823,168.675 231.647 C 168.675 231.470,168.451 231.325,168.177 231.325 C 167.904 231.325,167.345 230.964,166.936 230.522 C 166.526 230.080,166.029 229.719,165.830 229.719 C 165.494 229.719,165.229 229.531,163.458 228.032 C 163.092 227.723,162.659 227.470,162.496 227.470 C 162.332 227.470,161.643 226.892,160.964 226.185 C 160.285 225.478,159.575 224.900,159.387 224.900 C 158.958 224.900,152.610 218.534,152.610 218.104 C 152.610 217.930,152.104 217.311,151.486 216.728 C 150.867 216.144,150.361 215.484,150.361 215.261 C 150.361 214.843,149.163 213.655,148.742 213.655 C 148.612 213.655,148.410 213.145,148.293 212.523 C 148.176 211.900,147.799 211.215,147.454 211.000 C 147.109 210.785,146.827 210.386,146.827 210.114 C 146.827 209.842,146.543 209.415,146.197 209.165 C 145.850 208.915,145.476 208.269,145.366 207.729 C 145.100 206.416,144.479 204.980,144.179 204.980 C 144.045 204.980,143.936 204.691,143.936 204.337 C 143.936 203.984,143.821 203.695,143.681 203.695 C 143.412 203.695,142.329 200.468,142.329 199.666 C 142.329 199.408,142.185 199.197,142.008 199.197 C 141.831 199.197,141.687 198.835,141.687 198.394 C 141.687 197.952,141.542 197.590,141.365 197.590 C 141.189 197.590,141.044 197.012,141.044 196.305 C 141.044 195.598,140.910 195.020,140.745 195.020 C 140.580 195.020,140.345 193.860,140.221 192.443 C 140.097 191.025,139.870 189.788,139.717 189.693 C 139.563 189.598,139.438 188.713,139.438 187.727 C 139.438 186.213,139.249 185.627,138.225 183.970 C 137.558 182.891,136.799 181.574,136.539 181.044 C 136.278 180.514,135.982 180.008,135.881 179.920 C 135.779 179.831,135.145 178.602,134.471 177.189 C 133.313 174.760,132.928 173.879,132.365 172.369 C 132.233 172.016,131.897 171.149,131.619 170.442 C 131.341 169.735,130.904 168.506,130.649 167.711 C 130.077 165.927,129.355 165.805,129.218 167.470 C 129.163 168.133,128.982 168.675,128.816 168.675 C 128.650 168.675,128.514 169.678,128.514 170.905 C 128.514 172.131,128.369 173.224,128.193 173.333 C 128.016 173.443,127.871 174.535,127.871 175.762 C 127.871 177.034,127.734 177.992,127.550 177.992 C 127.121 177.992,127.121 185.598,127.550 185.863 C 127.976 186.127,127.964 188.178,127.535 188.443 C 127.303 188.587,127.311 188.788,127.561 189.089 C 127.761 189.330,127.830 189.824,127.715 190.187 C 127.574 190.632,127.670 190.910,128.010 191.040 C 128.389 191.185,128.514 191.703,128.514 193.127 C 128.514 194.168,128.640 195.020,128.794 195.020 C 128.948 195.020,129.175 196.177,129.298 197.590 C 129.421 199.004,129.657 200.161,129.821 200.161 C 129.986 200.161,130.120 200.586,130.120 201.106 C 130.120 201.625,130.265 202.140,130.442 202.249 C 130.618 202.358,130.763 202.728,130.763 203.071 C 130.763 203.414,130.908 203.695,131.084 203.695 C 131.261 203.695,131.406 204.048,131.406 204.479 C 131.406 204.910,131.531 205.341,131.685 205.436 C 131.838 205.531,132.057 206.190,132.170 206.901 C 132.284 207.611,132.520 208.193,132.695 208.193 C 132.869 208.193,133.012 208.627,133.012 209.157 C 133.012 209.687,133.157 210.120,133.333 210.120 C 133.510 210.120,133.655 210.337,133.655 210.602 C 133.655 210.867,133.783 211.084,133.939 211.084 C 134.095 211.084,134.470 211.838,134.771 212.758 C 135.072 213.679,135.594 214.672,135.932 214.965 C 136.270 215.257,136.546 215.718,136.546 215.987 C 136.546 216.257,136.763 216.561,137.028 216.662 C 137.293 216.764,137.510 217.141,137.510 217.500 C 137.510 217.859,137.655 218.153,137.831 218.153 C 138.008 218.153,138.153 218.369,138.153 218.635 C 138.153 218.900,138.297 219.116,138.474 219.116 C 138.651 219.116,138.795 219.297,138.796 219.518 C 138.796 219.739,139.157 220.340,139.599 220.853 C 140.040 221.367,140.402 221.891,140.402 222.019 C 140.402 222.147,140.980 222.848,141.687 223.576 C 142.394 224.304,142.972 225.040,142.972 225.210 C 142.972 225.615,147.398 230.040,147.802 230.040 C 147.973 230.040,148.112 230.255,148.112 230.518 C 148.112 231.052,151.133 234.217,151.642 234.217 C 151.821 234.217,151.968 234.361,151.968 234.538 C 151.968 234.715,152.257 234.859,152.610 234.859 C 152.967 234.859,153.253 235.074,153.253 235.341 C 153.253 235.606,153.470 235.823,153.735 235.823 C 154.000 235.823,154.217 235.943,154.217 236.090 C 154.217 236.237,154.614 236.562,155.100 236.813 C 155.586 237.064,156.161 237.506,156.378 237.795 C 156.595 238.084,157.137 238.412,157.583 238.524 C 158.029 238.636,158.394 238.869,158.394 239.042 C 158.394 239.216,158.557 239.357,158.757 239.357 C 158.958 239.357,159.355 239.627,159.641 239.957 C 159.927 240.287,160.631 240.660,161.205 240.786 C 161.779 240.912,162.249 241.148,162.249 241.311 C 162.249 241.473,162.506 241.606,162.821 241.606 C 163.135 241.606,163.601 241.896,163.855 242.249 C 164.110 242.602,164.504 242.892,164.730 242.892 C 164.956 242.892,165.141 243.027,165.141 243.193 C 165.141 243.359,165.791 243.592,166.586 243.712 C 167.382 243.831,168.032 244.057,168.032 244.213 C 168.032 244.370,168.321 244.498,168.675 244.498 C 169.028 244.498,169.318 244.606,169.320 244.739 C 169.323 245.059,170.907 245.783,171.604 245.783 C 171.907 245.783,172.207 245.937,172.269 246.125 C 172.332 246.313,172.995 246.549,173.742 246.649 C 174.489 246.750,175.100 246.957,175.100 247.111 C 175.100 247.264,175.606 247.390,176.225 247.390 C 176.843 247.390,177.349 247.534,177.349 247.711 C 177.349 247.888,177.855 248.032,178.474 248.032 C 179.092 248.032,179.598 248.165,179.598 248.328 C 179.598 248.490,180.538 248.724,181.687 248.847 C 182.835 248.970,183.775 249.199,183.775 249.355 C 183.775 249.511,184.643 249.639,185.703 249.639 C 186.774 249.639,187.631 249.781,187.631 249.960 C 187.631 250.168,191.379 250.281,198.233 250.281 C 205.087 250.281,208.835 250.168,208.835 249.960 C 208.835 249.776,209.799 249.639,211.084 249.639 C 212.321 249.639,213.333 249.511,213.333 249.355 C 213.333 249.199,214.418 248.970,215.743 248.846 C 217.068 248.721,218.153 248.488,218.153 248.326 C 218.153 248.164,218.659 248.032,219.277 248.032 C 219.896 248.032,220.402 247.888,220.402 247.711 C 220.402 247.534,221.052 247.390,221.847 247.390 C 222.643 247.390,223.293 247.263,223.293 247.109 C 223.293 246.955,223.908 246.733,224.659 246.614 C 226.202 246.372,227.791 245.747,227.791 245.383 C 227.791 245.250,228.225 245.141,228.755 245.141 C 229.285 245.141,229.719 244.996,229.719 244.819 C 229.719 244.643,230.080 244.498,230.522 244.498 C 230.964 244.498,231.325 244.362,231.325 244.196 C 231.325 244.031,231.976 243.797,232.771 243.678 C 233.566 243.559,234.217 243.333,234.217 243.176 C 234.217 243.020,234.578 242.892,235.020 242.892 C 235.462 242.892,235.823 242.747,235.823 242.570 C 235.823 242.394,236.112 242.249,236.466 242.249 C 236.819 242.249,237.108 242.104,237.108 241.928 C 237.108 241.751,237.325 241.606,237.590 241.606 C 237.855 241.606,238.072 241.465,238.072 241.291 C 238.072 241.118,238.470 240.878,238.956 240.758 C 239.442 240.638,240.073 240.274,240.359 239.949 C 240.645 239.623,241.042 239.357,241.243 239.357 C 241.443 239.357,241.606 239.229,241.606 239.072 C 241.606 238.915,242.112 238.691,242.731 238.575 C 243.349 238.459,243.855 238.244,243.855 238.097 C 243.855 237.949,244.284 237.651,244.809 237.434 C 245.333 237.217,245.849 236.766,245.955 236.431 C 246.061 236.097,246.417 235.823,246.746 235.823 C 247.075 235.823,247.561 235.606,247.826 235.341 C 248.091 235.076,248.431 234.859,248.581 234.859 C 248.731 234.859,249.063 234.570,249.317 234.217 C 249.572 233.863,249.965 233.574,250.191 233.574 C 250.417 233.574,250.602 233.430,250.602 233.253 C 250.602 233.076,250.824 232.932,251.094 232.932 C 251.365 232.932,251.670 232.715,251.771 232.450 C 251.873 232.185,252.168 231.968,252.426 231.968 C 252.684 231.968,253.519 231.317,254.281 230.522 C 255.043 229.727,255.890 229.076,256.165 229.076 C 256.439 229.076,256.755 228.787,256.867 228.434 C 256.980 228.080,257.344 227.791,257.678 227.791 C 258.011 227.791,258.616 227.431,259.022 226.991 C 259.791 226.157,260.691 225.235,261.923 224.021 C 263.611 222.356,264.096 221.667,264.096 220.934 C 264.096 220.508,264.337 219.961,264.631 219.718 C 264.925 219.476,265.612 218.684,266.157 217.959 C 269.830 213.074,270.678 212.079,271.301 211.922 C 271.720 211.817,272.179 211.291,272.446 210.612 C 272.691 209.988,272.993 209.478,273.117 209.478 C 273.241 209.478,273.431 209.003,273.540 208.423 C 273.649 207.843,274.026 207.161,274.379 206.907 C 274.732 206.652,275.020 206.260,275.020 206.033 C 275.020 205.807,275.165 205.622,275.341 205.622 C 275.518 205.622,275.663 205.333,275.663 204.980 C 275.663 204.627,275.791 204.337,275.948 204.337 C 276.105 204.337,276.329 203.831,276.445 203.213 C 276.561 202.594,276.794 202.088,276.962 202.088 C 277.131 202.088,277.269 201.799,277.269 201.446 C 277.269 201.092,277.414 200.803,277.590 200.803 C 277.767 200.803,277.912 200.586,277.912 200.321 C 277.912 200.056,278.044 199.839,278.205 199.839 C 278.366 199.839,278.594 199.267,278.713 198.568 C 278.857 197.716,279.131 197.231,279.544 197.100 C 279.967 196.966,280.161 196.609,280.161 195.962 C 280.161 195.444,280.305 195.020,280.482 195.020 C 280.659 195.020,280.803 194.659,280.803 194.217 C 280.803 193.775,280.937 193.414,281.101 193.414 C 281.265 193.414,281.499 192.618,281.620 191.647 C 281.742 190.675,281.969 189.880,282.125 189.880 C 282.282 189.880,282.410 189.518,282.410 189.076 C 282.410 188.635,282.554 188.273,282.731 188.273 C 282.908 188.273,283.052 187.912,283.052 187.470 C 283.052 187.028,283.197 186.667,283.373 186.667 C 283.554 186.667,283.695 185.765,283.695 184.605 C 283.695 183.471,283.833 182.495,284.002 182.436 C 284.171 182.378,284.409 180.775,284.531 178.876 C 284.653 176.976,284.877 175.422,285.027 175.422 C 285.178 175.422,285.301 172.598,285.301 169.146 L 285.301 162.870 284.167 161.736 C 282.145 159.714,279.944 159.194,277.899 160.256 " stroke="none" fill="#151c24" fill-rule="evenodd"></path><path id="path1" d="M189.237 79.962 C 189.237 80.118,188.008 80.348,186.506 80.473 C 185.004 80.598,183.775 80.832,183.775 80.993 C 183.775 81.154,182.980 81.285,182.008 81.285 C 181.036 81.285,180.241 81.430,180.241 81.606 C 180.241 81.783,179.735 81.928,179.116 81.928 C 178.498 81.928,177.992 82.072,177.992 82.249 C 177.992 82.426,177.414 82.570,176.707 82.570 C 176.000 82.570,175.422 82.708,175.422 82.877 C 175.422 83.046,174.916 83.279,174.297 83.395 C 173.679 83.511,173.173 83.734,173.173 83.891 C 173.173 84.048,172.811 84.177,172.369 84.177 C 171.928 84.177,171.566 84.321,171.566 84.498 C 171.566 84.675,171.205 84.819,170.763 84.819 C 170.321 84.819,169.960 84.945,169.960 85.098 C 169.960 85.252,169.373 85.456,168.656 85.552 C 167.905 85.653,167.107 86.011,166.771 86.398 C 166.451 86.766,165.954 87.068,165.665 87.068 C 165.377 87.068,165.141 87.213,165.141 87.390 C 165.141 87.566,164.924 87.711,164.659 87.711 C 164.394 87.711,164.177 87.855,164.177 88.032 C 164.177 88.209,163.738 88.353,163.203 88.353 C 162.633 88.353,162.152 88.554,162.044 88.835 C 161.942 89.100,161.617 89.317,161.322 89.317 C 161.026 89.317,160.576 89.606,160.321 89.960 C 160.067 90.313,159.673 90.602,159.447 90.602 C 159.221 90.602,159.036 90.747,159.036 90.924 C 159.036 91.100,158.746 91.245,158.390 91.245 C 158.035 91.245,157.512 91.516,157.229 91.848 C 156.928 92.199,156.460 92.384,156.107 92.292 C 155.689 92.183,155.502 92.303,155.502 92.682 C 155.502 93.207,154.331 94.425,153.805 94.447 C 153.666 94.453,153.047 94.964,152.428 95.582 C 151.810 96.201,151.164 96.707,150.993 96.707 C 150.581 96.707,145.542 101.756,145.542 102.169 C 145.542 102.345,145.387 102.490,145.198 102.490 C 144.736 102.490,143.936 103.314,143.936 103.791 C 143.936 104.001,143.285 104.797,142.490 105.559 C 141.695 106.321,141.044 107.098,141.044 107.287 C 141.044 107.476,140.900 107.631,140.723 107.631 C 140.546 107.631,140.402 107.913,140.402 108.258 C 140.402 108.604,140.040 109.248,139.598 109.690 C 139.157 110.131,138.795 110.591,138.795 110.711 C 138.795 110.831,138.525 111.163,138.196 111.449 C 137.866 111.735,137.493 112.438,137.367 113.012 C 137.241 113.586,137.005 114.056,136.842 114.056 C 136.679 114.056,136.546 114.336,136.546 114.677 C 136.546 115.019,136.257 115.390,135.904 115.502 C 135.550 115.614,135.261 115.985,135.261 116.327 C 135.261 116.668,135.133 116.948,134.976 116.948 C 134.820 116.948,134.594 117.598,134.475 118.394 C 134.355 119.189,134.122 119.839,133.956 119.839 C 133.790 119.839,133.655 120.129,133.655 120.482 C 133.655 120.835,133.510 121.124,133.333 121.124 C 133.157 121.124,133.012 121.341,133.012 121.606 C 133.012 121.871,132.867 122.088,132.691 122.088 C 132.514 122.088,132.369 122.378,132.369 122.731 C 132.369 123.088,132.155 123.373,131.888 123.373 C 131.305 123.373,131.244 124.208,131.807 124.471 C 132.129 124.621,132.129 124.696,131.807 124.846 C 131.586 124.949,131.406 125.527,131.406 126.131 C 131.406 126.735,131.261 127.229,131.084 127.229 C 130.908 127.229,130.763 127.663,130.763 128.193 C 130.763 128.723,130.618 129.157,130.442 129.157 C 130.265 129.157,130.120 129.361,130.120 129.612 C 130.120 129.862,129.974 130.116,129.796 130.175 C 129.617 130.235,129.379 131.693,129.265 133.415 C 129.152 135.137,128.937 136.546,128.787 136.546 C 128.637 136.546,128.514 137.703,128.514 139.116 C 128.514 140.616,128.380 141.687,128.193 141.687 C 127.991 141.687,127.871 143.722,127.871 147.149 C 127.871 150.576,127.752 152.610,127.550 152.610 C 127.373 152.610,127.229 152.900,127.229 153.253 C 127.229 153.606,127.373 153.896,127.550 153.896 C 127.734 153.896,127.871 154.859,127.871 156.145 C 127.871 157.430,128.009 158.394,128.193 158.394 C 128.369 158.394,128.514 158.900,128.514 159.518 C 128.514 160.137,128.640 160.643,128.794 160.643 C 128.948 160.643,129.177 161.829,129.304 163.278 C 129.430 164.728,129.708 166.065,129.922 166.250 C 130.136 166.435,130.494 167.165,130.717 167.871 C 131.079 169.015,131.325 169.681,132.408 172.450 C 132.563 172.847,132.816 173.498,132.968 173.896 C 133.418 175.067,135.680 179.745,135.881 179.920 C 135.982 180.008,136.278 180.514,136.539 181.044 C 136.799 181.574,137.558 182.891,138.225 183.970 C 138.892 185.050,139.438 186.083,139.438 186.265 C 139.438 186.448,139.655 186.681,139.920 186.783 C 140.185 186.885,140.402 187.208,140.402 187.502 C 140.402 188.038,141.546 189.237,142.057 189.237 C 142.207 189.237,142.329 189.473,142.329 189.762 C 142.329 190.314,143.318 191.392,148.916 196.938 C 150.153 198.164,151.338 199.354,151.551 199.583 C 152.317 200.410,152.914 200.803,153.400 200.803 C 153.673 200.803,153.896 200.926,153.896 201.075 C 153.896 201.561,155.082 202.731,155.575 202.731 C 155.839 202.731,156.326 203.092,156.658 203.534 C 156.990 203.976,157.516 204.337,157.827 204.337 C 158.139 204.337,158.394 204.482,158.394 204.659 C 158.394 204.835,158.593 204.980,158.836 204.980 C 159.080 204.980,159.459 205.197,159.679 205.462 C 159.899 205.727,160.318 205.944,160.611 205.944 C 160.904 205.944,161.352 206.233,161.606 206.586 C 161.861 206.940,162.255 207.229,162.481 207.229 C 162.707 207.229,162.892 207.357,162.892 207.514 C 162.892 207.671,163.398 207.895,164.016 208.011 C 164.635 208.127,165.141 208.360,165.141 208.529 C 165.141 208.697,165.430 208.835,165.783 208.835 C 166.137 208.835,166.426 208.980,166.426 209.157 C 166.426 209.333,166.643 209.478,166.908 209.478 C 167.173 209.478,167.390 209.622,167.390 209.799 C 167.390 209.976,167.811 210.120,168.327 210.120 C 168.842 210.120,169.315 210.274,169.378 210.462 C 169.440 210.651,170.103 210.887,170.850 210.987 C 171.597 211.087,172.209 211.294,172.209 211.448 C 172.209 211.601,172.570 211.727,173.012 211.727 C 173.454 211.727,173.815 211.871,173.815 212.048 C 173.815 212.225,174.104 212.369,174.458 212.369 C 174.811 212.369,175.100 212.514,175.100 212.691 C 175.100 212.867,175.606 213.012,176.225 213.012 C 176.843 213.012,177.349 213.147,177.349 213.311 C 177.349 213.476,178.506 213.711,179.920 213.835 C 181.333 213.958,182.490 214.185,182.490 214.339 C 182.490 214.493,183.285 214.618,184.257 214.618 C 185.229 214.618,186.024 214.763,186.024 214.940 C 186.024 215.123,186.988 215.261,188.273 215.261 C 189.558 215.261,190.522 215.399,190.522 215.582 C 190.522 215.783,192.450 215.904,195.663 215.904 C 198.876 215.904,200.803 215.783,200.803 215.582 C 200.803 215.399,201.767 215.261,203.052 215.261 C 204.337 215.261,205.301 215.123,205.301 214.940 C 205.301 214.763,206.096 214.618,207.068 214.618 C 208.040 214.618,208.835 214.493,208.835 214.339 C 208.835 214.185,209.992 213.958,211.406 213.835 C 212.819 213.711,213.976 213.476,213.976 213.311 C 213.976 213.147,214.482 213.012,215.100 213.012 C 215.719 213.012,216.225 212.867,216.225 212.691 C 216.225 212.514,216.514 212.369,216.867 212.369 C 217.221 212.369,217.510 212.225,217.510 212.048 C 217.510 211.871,217.871 211.727,218.313 211.727 C 218.755 211.727,219.116 211.599,219.116 211.443 C 219.116 211.286,219.912 211.059,220.884 210.938 C 221.855 210.816,222.651 210.583,222.651 210.419 C 222.651 210.255,222.940 210.120,223.293 210.120 C 223.647 210.120,223.936 209.976,223.936 209.799 C 223.936 209.622,224.153 209.478,224.418 209.478 C 224.683 209.478,224.900 209.333,224.900 209.157 C 224.900 208.980,225.189 208.835,225.542 208.835 C 225.896 208.835,226.185 208.697,226.185 208.529 C 226.185 208.360,226.691 208.127,227.309 208.011 C 227.928 207.895,228.434 207.671,228.434 207.514 C 228.434 207.357,228.723 207.229,229.076 207.229 C 229.430 207.229,229.719 207.084,229.719 206.908 C 229.719 206.731,229.936 206.586,230.201 206.586 C 230.466 206.586,230.683 206.456,230.683 206.296 C 230.683 206.137,231.118 205.855,231.651 205.669 C 232.183 205.484,232.705 205.108,232.810 204.835 C 232.915 204.561,233.242 204.337,233.538 204.337 C 233.833 204.337,234.283 204.048,234.538 203.695 C 234.793 203.341,235.180 203.052,235.398 203.052 C 235.616 203.052,236.156 202.691,236.597 202.249 C 237.039 201.807,237.486 201.446,237.590 201.446 C 237.695 201.446,238.133 201.120,238.565 200.723 C 238.997 200.325,239.708 199.675,240.146 199.277 C 241.461 198.082,244.498 199.160,244.498 200.822 C 244.498 200.997,246.811 203.442,249.639 206.255 C 252.466 209.068,254.779 211.577,254.779 211.829 C 254.779 212.084,255.212 212.376,255.750 212.483 C 257.034 212.740,258.460 211.207,262.243 205.500 C 263.516 203.580,263.434 203.373,260.080 200.041 C 258.402 198.373,257.028 196.857,257.028 196.672 C 257.028 196.486,256.651 195.983,256.189 195.552 C 255.728 195.122,255.206 194.625,255.030 194.448 C 254.854 194.271,254.203 193.620,253.585 193.001 C 252.967 192.383,252.295 191.712,252.094 191.510 C 251.892 191.308,251.265 190.678,250.700 190.110 C 250.136 189.541,249.485 188.903,249.254 188.690 C 248.628 188.112,248.032 187.361,248.032 187.148 C 248.032 186.901,246.512 185.382,246.265 185.382 C 246.161 185.382,245.714 185.020,245.272 184.578 C 244.288 183.595,239.810 183.368,238.921 184.257 C 238.656 184.522,238.357 184.739,238.256 184.739 C 237.824 184.739,235.502 187.281,235.502 187.754 C 235.502 188.039,235.279 188.273,235.007 188.273 C 234.346 188.273,233.858 188.679,231.960 190.806 C 231.469 191.357,230.857 191.807,230.599 191.807 C 230.341 191.807,229.859 192.169,229.527 192.610 C 229.195 193.052,228.722 193.414,228.475 193.414 C 228.229 193.414,227.793 193.682,227.508 194.010 C 227.222 194.338,226.663 194.710,226.265 194.835 C 225.867 194.961,225.542 195.198,225.542 195.363 C 225.542 195.528,225.325 195.663,225.060 195.663 C 224.795 195.663,224.578 195.807,224.578 195.984 C 224.578 196.161,224.289 196.305,223.936 196.305 C 223.582 196.305,223.292 196.414,223.291 196.546 C 223.288 196.869,221.431 197.912,220.857 197.912 C 220.607 197.912,220.402 198.056,220.402 198.233 C 220.402 198.410,220.040 198.554,219.598 198.554 C 219.157 198.554,218.795 198.699,218.795 198.876 C 218.795 199.052,218.506 199.197,218.153 199.197 C 217.799 199.197,217.510 199.333,217.510 199.498 C 217.510 199.664,216.859 199.898,216.064 200.017 C 215.269 200.136,214.618 200.362,214.618 200.518 C 214.618 200.675,214.257 200.803,213.815 200.803 C 213.373 200.803,213.012 200.948,213.012 201.124 C 213.012 201.301,212.578 201.446,212.048 201.446 C 211.518 201.446,211.084 201.590,211.084 201.767 C 211.084 201.944,210.590 202.088,209.987 202.088 C 209.383 202.088,208.841 202.230,208.782 202.402 C 208.723 202.575,207.410 202.813,205.863 202.932 C 204.317 203.050,203.052 203.270,203.052 203.421 C 203.052 203.572,199.727 203.695,195.663 203.695 C 191.598 203.695,188.273 203.571,188.273 203.420 C 188.273 203.269,187.155 203.060,185.790 202.957 C 184.424 202.854,183.255 202.616,183.192 202.429 C 183.130 202.242,182.585 202.088,181.981 202.088 C 181.378 202.088,180.884 201.944,180.884 201.767 C 180.884 201.590,180.305 201.446,179.598 201.446 C 178.892 201.446,178.313 201.301,178.313 201.124 C 178.313 200.948,177.952 200.803,177.510 200.803 C 177.068 200.803,176.707 200.675,176.707 200.518 C 176.707 200.362,176.056 200.136,175.261 200.017 C 174.466 199.898,173.815 199.664,173.815 199.498 C 173.815 199.333,173.598 199.197,173.333 199.197 C 173.068 199.197,172.851 199.052,172.851 198.876 C 172.851 198.699,172.562 198.554,172.209 198.554 C 171.855 198.554,171.566 198.410,171.566 198.233 C 171.566 198.056,171.313 197.907,171.004 197.901 C 170.695 197.896,170.161 197.679,169.818 197.420 C 169.475 197.160,168.965 196.948,168.684 196.948 C 168.404 196.948,167.966 196.659,167.711 196.305 C 167.456 195.952,167.063 195.663,166.837 195.663 C 166.611 195.663,166.426 195.518,166.426 195.341 C 166.426 195.165,166.147 195.020,165.806 195.020 C 165.465 195.020,164.970 194.803,164.705 194.538 C 164.439 194.273,164.126 194.056,164.007 194.056 C 163.889 194.056,163.387 193.622,162.892 193.092 C 162.396 192.562,161.837 192.129,161.649 192.129 C 161.461 192.129,160.801 191.622,160.182 191.004 C 159.564 190.386,158.974 189.880,158.873 189.880 C 158.642 189.880,157.956 189.315,156.924 188.273 C 155.939 187.280,155.852 187.194,154.859 186.209 C 153.818 185.176,153.253 184.491,153.253 184.260 C 153.253 184.158,152.747 183.569,152.129 182.950 C 151.510 182.332,151.004 181.675,151.004 181.490 C 151.004 181.306,150.433 180.606,149.735 179.935 C 149.037 179.265,148.364 178.300,148.238 177.792 C 148.112 177.283,147.744 176.634,147.419 176.348 C 147.093 176.062,146.827 175.664,146.827 175.464 C 146.827 175.264,146.683 175.100,146.506 175.100 C 146.329 175.100,146.185 174.873,146.185 174.596 C 146.185 174.318,145.968 173.874,145.703 173.609 C 145.438 173.344,145.221 172.776,145.221 172.347 C 145.221 171.917,145.076 171.566,144.900 171.566 C 144.723 171.566,144.578 171.277,144.578 170.924 C 144.578 170.570,144.434 170.281,144.257 170.281 C 144.080 170.281,143.936 170.064,143.936 169.799 C 143.936 169.534,143.800 169.317,143.634 169.317 C 143.468 169.317,143.235 168.667,143.116 167.871 C 142.996 167.076,142.771 166.426,142.614 166.426 C 142.457 166.426,142.329 166.007,142.329 165.496 C 142.329 164.985,142.131 164.490,141.888 164.397 C 141.645 164.304,141.368 163.819,141.273 163.319 C 141.054 162.165,139.870 156.512,139.384 154.299 C 138.964 152.382,139.241 140.726,139.715 140.422 C 139.870 140.322,140.101 138.976,140.228 137.430 C 140.355 135.884,140.591 134.618,140.752 134.618 C 140.913 134.618,141.044 134.112,141.044 133.494 C 141.044 132.876,141.189 132.369,141.365 132.369 C 141.542 132.369,141.687 132.008,141.687 131.566 C 141.687 131.124,141.831 130.763,142.008 130.763 C 142.185 130.763,142.329 130.410,142.329 129.979 C 142.329 129.547,142.455 129.117,142.608 129.022 C 142.762 128.927,142.980 128.268,143.094 127.557 C 143.208 126.847,143.444 126.265,143.618 126.265 C 143.793 126.265,143.936 125.976,143.936 125.622 C 143.936 125.269,144.080 124.980,144.257 124.980 C 144.434 124.980,144.578 124.763,144.578 124.498 C 144.578 124.233,144.710 124.016,144.871 124.016 C 145.033 124.016,145.268 123.402,145.395 122.652 C 145.522 121.902,145.896 121.054,146.226 120.767 C 146.557 120.480,146.827 120.042,146.827 119.792 C 146.827 119.543,147.111 119.134,147.458 118.884 C 147.805 118.634,148.186 117.988,148.304 117.448 C 148.509 116.515,149.504 115.341,150.089 115.341 C 150.239 115.341,150.361 115.105,150.361 114.816 C 150.361 114.527,150.723 113.956,151.165 113.546 C 151.606 113.137,151.968 112.646,151.968 112.456 C 151.968 112.265,152.908 111.184,154.056 110.052 C 155.205 108.920,156.145 107.852,156.145 107.678 C 156.145 107.247,158.582 104.739,159.000 104.739 C 159.185 104.739,159.842 104.233,160.461 103.614 C 161.079 102.996,161.879 102.490,162.238 102.490 C 162.605 102.490,162.892 102.278,162.892 102.008 C 162.892 101.708,163.195 101.526,163.695 101.526 C 164.211 101.526,164.498 101.346,164.498 101.021 C 164.498 100.291,165.189 99.709,166.364 99.451 C 166.928 99.327,167.390 99.093,167.390 98.930 C 167.390 98.768,167.679 98.635,168.032 98.635 C 168.386 98.635,168.675 98.490,168.675 98.313 C 168.675 98.137,168.954 97.992,169.296 97.992 C 169.637 97.992,170.005 97.715,170.112 97.375 C 170.243 96.962,170.728 96.688,171.580 96.544 C 172.279 96.426,172.851 96.197,172.851 96.036 C 172.851 95.875,173.213 95.743,173.655 95.743 C 174.096 95.743,174.458 95.598,174.458 95.422 C 174.458 95.245,174.675 95.100,174.940 95.100 C 175.205 95.100,175.422 94.956,175.422 94.779 C 175.422 94.602,175.711 94.458,176.064 94.458 C 176.418 94.458,176.707 94.324,176.707 94.160 C 176.707 93.996,177.502 93.762,178.474 93.641 C 179.446 93.519,180.241 93.292,180.241 93.136 C 180.241 92.979,180.892 92.851,181.687 92.851 C 182.482 92.851,183.133 92.707,183.133 92.530 C 183.133 92.353,183.639 92.209,184.257 92.209 C 184.876 92.209,185.382 92.080,185.382 91.922 C 185.382 91.764,186.683 91.531,188.273 91.406 C 189.863 91.280,191.165 91.048,191.165 90.890 C 191.165 90.729,194.361 90.602,198.394 90.602 C 203.962 90.602,205.623 90.695,205.623 91.004 C 205.624 91.291,206.467 91.424,208.590 91.472 C 210.308 91.510,211.604 91.679,211.669 91.873 C 211.730 92.058,212.564 92.209,213.521 92.209 C 214.478 92.209,215.261 92.353,215.261 92.530 C 215.261 92.707,215.767 92.851,216.386 92.851 C 217.004 92.851,217.510 92.979,217.510 93.135 C 217.510 93.291,218.450 93.520,219.598 93.643 C 220.747 93.766,221.687 93.999,221.687 94.162 C 221.687 94.325,221.904 94.458,222.169 94.458 C 222.434 94.458,222.651 94.602,222.651 94.779 C 222.651 94.956,223.084 95.100,223.614 95.100 C 224.145 95.100,224.578 95.245,224.578 95.422 C 224.578 95.598,224.940 95.743,225.382 95.743 C 225.823 95.743,226.185 95.871,226.185 96.028 C 226.185 96.184,226.835 96.410,227.631 96.529 C 228.426 96.649,229.076 96.882,229.076 97.048 C 229.076 97.214,229.293 97.349,229.558 97.349 C 229.823 97.349,230.040 97.494,230.040 97.671 C 230.040 97.847,230.329 97.992,230.683 97.992 C 231.036 97.992,231.325 98.137,231.325 98.313 C 231.325 98.490,231.614 98.635,231.968 98.635 C 232.321 98.635,232.610 98.779,232.610 98.956 C 232.610 99.133,232.962 99.277,233.391 99.277 C 233.820 99.277,234.388 99.494,234.653 99.759 C 234.918 100.024,235.290 100.241,235.479 100.241 C 235.668 100.241,235.823 100.386,235.823 100.562 C 235.823 100.739,236.081 100.884,236.395 100.884 C 236.709 100.884,237.171 101.167,237.421 101.514 C 237.671 101.861,238.317 102.242,238.857 102.361 C 239.397 102.479,240.073 102.846,240.359 103.176 C 240.645 103.505,240.980 103.775,241.105 103.775 C 241.229 103.775,241.548 103.992,241.813 104.257 C 242.078 104.522,242.574 104.739,242.915 104.739 C 243.255 104.739,243.534 104.861,243.534 105.011 C 243.534 105.461,244.704 106.667,245.140 106.667 C 245.364 106.667,246.024 107.173,246.607 107.791 C 247.190 108.410,247.806 108.916,247.976 108.916 C 248.385 108.916,256.064 116.546,256.064 116.952 C 256.064 117.879,263.785 110.231,264.043 109.049 C 264.163 108.501,262.955 107.309,262.280 107.309 C 262.042 107.309,261.847 107.078,261.847 106.796 C 261.847 106.254,260.069 104.418,259.544 104.418 C 259.374 104.418,258.165 103.333,256.857 102.008 C 255.549 100.683,254.334 99.598,254.158 99.598 C 253.981 99.598,253.331 99.092,252.712 98.474 C 252.094 97.855,251.500 97.349,251.393 97.349 C 251.287 97.349,250.982 97.133,250.717 96.867 C 250.452 96.602,249.956 96.386,249.616 96.386 C 249.275 96.386,248.996 96.263,248.996 96.113 C 248.996 95.607,247.799 94.458,247.272 94.458 C 246.983 94.458,246.747 94.329,246.747 94.171 C 246.747 94.014,246.386 93.794,245.944 93.683 C 245.502 93.572,245.141 93.340,245.141 93.167 C 245.141 92.993,244.861 92.851,244.520 92.851 C 244.178 92.851,243.811 92.574,243.703 92.235 C 243.572 91.822,243.087 91.547,242.236 91.403 C 241.536 91.285,240.964 91.057,240.964 90.895 C 240.964 90.734,240.779 90.602,240.553 90.602 C 240.327 90.602,239.933 90.313,239.679 89.960 C 239.424 89.606,238.958 89.317,238.644 89.317 C 238.330 89.317,238.072 89.179,238.072 89.011 C 238.072 88.842,237.566 88.609,236.948 88.493 C 236.329 88.377,235.823 88.153,235.823 87.996 C 235.823 87.839,235.462 87.711,235.020 87.711 C 234.578 87.711,234.217 87.566,234.217 87.390 C 234.217 87.213,233.928 87.068,233.574 87.068 C 233.221 87.068,232.932 86.924,232.932 86.747 C 232.932 86.570,232.715 86.426,232.450 86.426 C 232.185 86.426,231.968 86.290,231.968 86.124 C 231.968 85.958,231.317 85.725,230.522 85.606 C 229.727 85.486,229.076 85.261,229.076 85.104 C 229.076 84.947,228.643 84.819,228.112 84.819 C 227.582 84.819,227.149 84.675,227.149 84.498 C 227.149 84.321,226.787 84.177,226.345 84.177 C 225.904 84.177,225.542 84.043,225.542 83.879 C 225.542 83.715,224.747 83.481,223.775 83.360 C 222.803 83.238,222.008 83.011,222.008 82.855 C 222.008 82.698,221.502 82.570,220.884 82.570 C 220.265 82.570,219.759 82.426,219.759 82.249 C 219.759 82.072,219.108 81.928,218.313 81.928 C 217.518 81.928,216.867 81.783,216.867 81.606 C 216.867 81.430,216.217 81.285,215.422 81.285 C 214.627 81.285,213.976 81.158,213.976 81.002 C 213.976 80.846,212.602 80.616,210.924 80.490 C 209.245 80.364,207.871 80.130,207.871 79.970 C 207.871 79.803,203.912 79.679,198.554 79.679 C 193.390 79.679,189.237 79.805,189.237 79.962 M267.573 121.282 C 263.820 125.163,262.450 126.939,263.052 127.145 C 263.273 127.221,263.454 127.560,263.454 127.898 C 263.454 128.237,263.598 128.514,263.775 128.514 C 263.952 128.514,264.096 128.678,264.096 128.878 C 264.096 129.078,264.362 129.476,264.688 129.762 C 265.013 130.047,265.377 130.679,265.497 131.165 C 265.617 131.651,265.857 132.048,266.030 132.048 C 266.204 132.048,266.345 132.265,266.345 132.530 C 266.345 132.795,266.490 133.012,266.667 133.012 C 266.843 133.012,266.988 133.301,266.988 133.655 C 266.988 134.008,267.126 134.297,267.295 134.297 C 267.463 134.297,267.696 134.803,267.812 135.422 C 267.928 136.040,268.152 136.546,268.309 136.546 C 268.466 136.546,268.594 136.908,268.594 137.349 C 268.594 137.791,268.739 138.153,268.916 138.153 C 269.092 138.153,269.237 138.586,269.237 139.116 C 269.237 139.647,269.382 140.080,269.558 140.080 C 269.735 140.080,269.880 140.297,269.880 140.562 C 269.880 140.827,270.007 141.044,270.164 141.044 C 270.320 141.044,270.547 141.839,270.669 142.811 C 270.790 143.783,271.024 144.578,271.188 144.578 C 271.352 144.578,271.486 145.084,271.486 145.703 C 271.486 146.321,271.631 146.827,271.807 146.827 C 271.984 146.827,272.129 147.478,272.129 148.273 C 272.129 149.068,272.273 149.719,272.450 149.719 C 272.627 149.719,272.771 150.357,272.771 151.138 C 272.771 151.918,272.922 152.607,273.107 152.669 C 273.307 152.735,273.523 154.659,273.641 157.430 C 273.779 160.640,273.972 162.211,274.267 162.506 C 274.730 162.968,275.341 162.766,275.342 162.150 C 275.343 161.589,278.014 159.995,279.303 159.786 C 280.833 159.538,282.568 160.180,283.862 161.473 C 285.282 162.894,285.944 162.670,285.944 160.769 C 285.944 159.993,285.799 159.357,285.622 159.357 C 285.444 159.357,285.301 158.501,285.301 157.430 C 285.301 156.369,285.179 155.502,285.029 155.502 C 284.880 155.502,284.662 153.731,284.546 151.566 C 284.430 149.402,284.191 147.582,284.015 147.523 C 283.839 147.465,283.695 146.922,283.695 146.319 C 283.695 145.715,283.550 145.221,283.373 145.221 C 283.197 145.221,283.052 144.787,283.052 144.257 C 283.052 143.727,282.908 143.293,282.731 143.293 C 282.554 143.293,282.410 142.787,282.410 142.169 C 282.410 141.550,282.284 141.044,282.130 141.044 C 281.976 141.044,281.752 140.177,281.632 139.116 C 281.512 138.056,281.276 137.189,281.109 137.189 C 280.941 137.189,280.803 136.755,280.803 136.225 C 280.803 135.695,280.659 135.261,280.482 135.261 C 280.305 135.261,280.161 135.044,280.161 134.779 C 280.161 134.514,280.016 134.297,279.839 134.297 C 279.663 134.297,279.518 134.008,279.518 133.655 C 279.518 133.301,279.390 133.012,279.233 133.012 C 279.077 133.012,278.851 132.361,278.732 131.566 C 278.612 130.771,278.379 130.120,278.213 130.120 C 278.047 130.120,277.912 129.904,277.912 129.639 C 277.912 129.373,277.767 129.157,277.590 129.157 C 277.414 129.157,277.269 128.867,277.269 128.514 C 277.269 128.161,277.141 127.871,276.984 127.871 C 276.827 127.871,276.603 127.365,276.487 126.747 C 276.371 126.129,276.138 125.622,275.969 125.622 C 275.801 125.622,275.663 125.333,275.663 124.980 C 275.663 124.627,275.518 124.337,275.341 124.337 C 275.165 124.337,275.020 124.152,275.020 123.926 C 275.020 123.700,274.731 123.307,274.378 123.052 C 274.024 122.797,273.735 122.327,273.735 122.007 C 273.735 121.687,273.518 121.342,273.253 121.241 C 272.988 121.139,272.771 120.703,272.771 120.272 C 272.771 119.591,271.521 117.912,271.014 117.912 C 270.914 117.912,269.366 119.428,267.573 121.282 M176.707 161.581 C 176.707 161.744,176.242 161.979,175.673 162.104 C 174.562 162.348,172.209 164.620,172.209 165.448 C 172.209 165.632,172.064 165.783,171.888 165.783 C 171.711 165.783,171.566 166.072,171.566 166.426 C 171.566 166.779,171.422 167.068,171.245 167.068 C 171.058 167.068,170.924 168.139,170.924 169.639 C 170.924 171.138,171.058 172.209,171.245 172.209 C 171.422 172.209,171.566 172.426,171.566 172.691 C 171.566 172.956,171.711 173.173,171.888 173.173 C 172.064 173.173,172.209 173.407,172.209 173.692 C 172.209 174.278,174.509 176.707,175.063 176.707 C 175.260 176.707,175.422 176.851,175.422 177.028 C 175.422 177.205,175.711 177.349,176.064 177.349 C 176.418 177.349,176.707 177.494,176.707 177.671 C 176.707 177.858,177.778 177.992,179.277 177.992 C 180.776 177.992,181.847 177.858,181.847 177.671 C 181.847 177.494,182.137 177.349,182.490 177.349 C 182.843 177.349,183.133 177.205,183.133 177.028 C 183.133 176.851,183.283 176.707,183.467 176.707 C 184.217 176.707,186.345 174.557,186.345 173.801 C 186.345 173.455,186.490 173.173,186.667 173.173 C 186.843 173.173,186.988 172.956,186.988 172.691 C 186.988 172.426,187.133 172.209,187.309 172.209 C 187.497 172.209,187.631 171.138,187.631 169.639 C 187.631 168.139,187.497 167.068,187.309 167.068 C 187.133 167.068,186.988 166.779,186.988 166.426 C 186.988 166.072,186.843 165.783,186.667 165.783 C 186.490 165.783,186.345 165.578,186.345 165.327 C 186.345 164.556,183.883 162.254,182.833 162.044 C 182.291 161.936,181.847 161.721,181.847 161.566 C 181.847 161.412,180.691 161.285,179.277 161.285 C 177.863 161.285,176.707 161.418,176.707 161.581 M88.675 168.354 C 86.352 170.847,83.494 170.959,81.183 168.648 C 79.201 166.667,79.036 166.842,79.036 170.924 C 79.036 173.066,79.163 174.458,79.357 174.458 C 79.545 174.458,79.679 175.529,79.679 177.028 C 79.679 178.442,79.803 179.598,79.954 179.598 C 80.106 179.598,80.333 181.369,80.458 183.534 C 80.584 185.699,80.821 187.518,80.986 187.577 C 81.150 187.636,81.285 188.467,81.285 189.424 C 81.285 190.382,81.430 191.165,81.606 191.165 C 81.783 191.165,81.928 191.671,81.928 192.289 C 81.928 192.908,82.062 193.414,82.226 193.414 C 82.390 193.414,82.624 194.211,82.745 195.185 C 82.867 196.159,83.094 197.035,83.250 197.132 C 83.406 197.228,83.534 197.877,83.534 198.573 C 83.534 199.270,83.679 199.839,83.855 199.839 C 84.032 199.839,84.177 200.201,84.177 200.643 C 84.177 201.084,84.321 201.446,84.498 201.446 C 84.675 201.446,84.819 201.807,84.819 202.249 C 84.819 202.691,84.955 203.052,85.121 203.052 C 85.287 203.052,85.520 203.703,85.639 204.498 C 85.759 205.293,85.984 205.944,86.141 205.944 C 86.298 205.944,86.426 206.378,86.426 206.908 C 86.426 207.438,86.570 207.871,86.747 207.871 C 86.924 207.871,87.068 208.233,87.068 208.675 C 87.068 209.116,87.213 209.478,87.390 209.478 C 87.566 209.478,87.711 209.755,87.711 210.094 C 87.711 210.432,87.865 210.761,88.053 210.824 C 88.241 210.886,88.477 211.549,88.577 212.296 C 88.677 213.043,88.885 213.655,89.038 213.655 C 89.192 213.655,89.317 213.871,89.317 214.137 C 89.317 214.402,89.462 214.618,89.639 214.618 C 89.815 214.618,89.960 215.052,89.960 215.582 C 89.960 216.112,90.104 216.546,90.281 216.546 C 90.458 216.546,90.602 216.763,90.602 217.028 C 90.602 217.293,90.731 217.510,90.888 217.510 C 91.045 217.510,91.262 217.985,91.371 218.565 C 91.480 219.145,91.858 219.827,92.210 220.081 C 92.563 220.336,92.851 220.873,92.851 221.276 C 92.851 221.679,92.996 222.008,93.173 222.008 C 93.349 222.008,93.494 222.287,93.494 222.628 C 93.494 222.968,93.711 223.464,93.976 223.729 C 94.241 223.994,94.458 224.366,94.458 224.555 C 94.458 224.745,94.602 224.900,94.779 224.900 C 94.956 224.900,95.100 225.157,95.100 225.471 C 95.100 225.786,95.384 226.247,95.731 226.498 C 96.078 226.748,96.459 227.394,96.577 227.934 C 96.696 228.473,97.063 229.149,97.393 229.435 C 97.722 229.721,97.992 230.087,97.992 230.248 C 97.992 230.409,98.281 230.749,98.635 231.004 C 98.988 231.259,99.277 231.729,99.277 232.049 C 99.277 232.369,99.494 232.714,99.759 232.816 C 100.024 232.917,100.241 233.216,100.241 233.480 C 100.241 233.743,100.654 234.345,101.160 234.817 C 101.665 235.289,102.181 235.998,102.306 236.392 C 102.431 236.786,102.668 237.108,102.833 237.108 C 102.998 237.108,103.133 237.388,103.133 237.729 C 103.133 238.071,103.421 238.442,103.774 238.554 C 104.127 238.666,104.503 239.105,104.610 239.529 C 104.716 239.953,105.221 240.630,105.732 241.034 C 106.243 241.437,106.662 242.020,106.664 242.329 C 106.665 242.639,106.884 242.892,107.149 242.892 C 107.414 242.892,107.631 243.042,107.631 243.227 C 107.631 243.411,108.426 244.351,109.398 245.315 C 110.369 246.279,111.165 247.253,111.165 247.479 C 111.165 247.705,111.473 248.103,111.850 248.363 C 112.227 248.623,112.697 249.022,112.895 249.249 C 114.332 250.909,116.671 253.173,116.948 253.173 C 117.132 253.173,118.066 253.968,119.022 254.940 C 119.979 255.912,120.896 256.707,121.061 256.707 C 121.226 256.707,122.012 257.357,122.807 258.153 C 123.602 258.948,124.410 259.598,124.602 259.598 C 125.032 259.598,126.586 261.120,126.586 261.541 C 126.586 261.709,126.876 261.847,127.229 261.847 C 127.582 261.847,127.871 261.982,127.871 262.147 C 127.871 262.312,128.190 262.548,128.580 262.672 C 128.970 262.795,129.808 263.436,130.442 264.096 C 131.076 264.756,131.914 265.397,132.303 265.521 C 132.693 265.645,133.012 265.881,133.012 266.046 C 133.012 266.211,133.266 266.345,133.577 266.345 C 133.888 266.345,134.323 266.635,134.544 266.988 C 134.765 267.341,135.161 267.631,135.424 267.631 C 135.688 267.631,135.904 267.775,135.904 267.952 C 135.904 268.129,136.197 268.273,136.556 268.273 C 136.915 268.273,137.292 268.490,137.394 268.755 C 137.499 269.030,137.978 269.237,138.508 269.237 C 139.216 269.237,139.438 269.387,139.438 269.865 C 139.438 270.328,139.733 270.548,140.562 270.704 C 141.181 270.820,141.687 271.043,141.687 271.200 C 141.687 271.357,141.976 271.486,142.329 271.486 C 142.683 271.486,142.972 271.631,142.972 271.807 C 142.972 271.984,143.333 272.129,143.775 272.129 C 144.217 272.129,144.578 272.273,144.578 272.450 C 144.578 272.627,144.777 272.771,145.021 272.771 C 145.264 272.771,145.643 272.988,145.863 273.253 C 146.083 273.518,146.535 273.735,146.867 273.735 C 147.198 273.735,147.470 273.880,147.470 274.056 C 147.470 274.233,147.831 274.378,148.273 274.378 C 148.715 274.378,149.076 274.522,149.076 274.699 C 149.076 274.876,149.365 275.020,149.719 275.020 C 150.072 275.020,150.361 275.165,150.361 275.341 C 150.361 275.518,150.661 275.663,151.027 275.663 C 151.393 275.663,151.909 275.880,152.174 276.145 C 152.439 276.410,153.007 276.627,153.437 276.627 C 153.866 276.627,154.217 276.771,154.217 276.948 C 154.217 277.124,154.651 277.269,155.181 277.269 C 155.711 277.269,156.145 277.414,156.145 277.590 C 156.145 277.767,156.361 277.912,156.627 277.912 C 156.892 277.912,157.108 278.056,157.108 278.233 C 157.108 278.410,157.542 278.554,158.072 278.554 C 158.602 278.554,159.036 278.685,159.036 278.845 C 159.036 279.005,159.759 279.236,160.643 279.357 C 161.526 279.479,162.249 279.709,162.249 279.870 C 162.249 280.030,162.683 280.161,163.213 280.161 C 163.743 280.161,164.177 280.305,164.177 280.482 C 164.177 280.659,164.538 280.803,164.980 280.803 C 165.422 280.803,165.783 280.933,165.783 281.092 C 165.783 281.251,166.795 281.482,168.032 281.606 C 169.269 281.731,170.281 281.962,170.281 282.121 C 170.281 282.280,170.715 282.410,171.245 282.410 C 171.775 282.410,172.209 282.554,172.209 282.731 C 172.209 282.908,172.859 283.052,173.655 283.052 C 174.450 283.052,175.100 283.197,175.100 283.373 C 175.100 283.550,175.811 283.695,176.680 283.695 C 177.549 283.695,178.308 283.830,178.367 283.994 C 178.426 284.159,180.245 284.396,182.410 284.522 C 184.574 284.647,186.345 284.874,186.345 285.025 C 186.345 285.177,187.791 285.301,189.558 285.301 C 191.486 285.301,192.771 285.430,192.771 285.622 C 192.771 285.827,195.288 285.944,199.679 285.944 C 204.070 285.944,206.586 285.827,206.586 285.622 C 206.586 285.432,207.764 285.301,209.478 285.301 C 211.068 285.301,212.369 285.171,212.369 285.012 C 212.369 284.853,214.177 284.619,216.386 284.492 C 218.594 284.364,220.402 284.133,220.402 283.977 C 220.402 283.822,221.052 283.695,221.847 283.695 C 222.643 283.695,223.293 283.550,223.293 283.373 C 223.293 283.197,223.944 283.052,224.739 283.052 C 225.534 283.052,226.185 282.908,226.185 282.731 C 226.185 282.554,226.546 282.410,226.988 282.410 C 227.430 282.410,227.791 282.282,227.791 282.126 C 227.791 281.970,228.731 281.741,229.880 281.618 C 231.028 281.495,231.968 281.262,231.968 281.099 C 231.968 280.936,232.474 280.803,233.092 280.803 C 233.711 280.803,234.217 280.659,234.217 280.482 C 234.217 280.305,234.578 280.161,235.020 280.161 C 235.462 280.161,235.823 280.035,235.823 279.882 C 235.823 279.728,236.435 279.521,237.182 279.420 C 237.929 279.320,238.592 279.084,238.654 278.896 C 238.717 278.708,239.190 278.554,239.705 278.554 C 240.221 278.554,240.643 278.410,240.643 278.233 C 240.643 278.056,241.004 277.912,241.446 277.912 C 241.888 277.912,242.249 277.767,242.249 277.590 C 242.249 277.414,242.538 277.269,242.892 277.269 C 243.245 277.269,243.534 277.143,243.534 276.989 C 243.534 276.835,244.112 276.616,244.819 276.503 C 245.526 276.390,246.104 276.155,246.104 275.980 C 246.104 275.806,246.394 275.663,246.747 275.663 C 247.100 275.663,247.390 275.518,247.390 275.341 C 247.390 275.165,247.679 275.020,248.032 275.020 C 248.386 275.020,248.675 274.876,248.675 274.699 C 248.675 274.522,248.892 274.378,249.157 274.378 C 249.422 274.378,249.639 274.249,249.639 274.092 C 249.639 273.935,250.145 273.712,250.763 273.595 C 251.382 273.479,251.888 273.247,251.888 273.078 C 251.888 272.909,252.177 272.771,252.530 272.771 C 252.884 272.771,253.173 272.627,253.173 272.450 C 253.173 272.273,253.462 272.129,253.815 272.129 C 254.169 272.129,254.458 271.984,254.458 271.807 C 254.458 271.631,254.675 271.486,254.940 271.486 C 255.205 271.486,255.422 271.341,255.422 271.165 C 255.422 270.988,255.715 270.843,256.074 270.843 C 256.433 270.843,256.810 270.627,256.912 270.361 C 257.014 270.096,257.371 269.880,257.705 269.880 C 258.040 269.880,258.313 269.735,258.313 269.558 C 258.313 269.382,258.602 269.237,258.956 269.237 C 259.309 269.237,259.598 269.108,259.598 268.950 C 259.598 268.793,259.960 268.573,260.402 268.462 C 260.843 268.352,261.205 268.119,261.205 267.946 C 261.205 267.772,261.484 267.631,261.826 267.631 C 262.167 267.631,262.538 267.341,262.651 266.988 C 262.763 266.635,263.134 266.345,263.475 266.345 C 263.817 266.345,264.096 266.211,264.096 266.046 C 264.096 265.881,264.422 265.643,264.819 265.518 C 265.217 265.392,265.776 265.021,266.062 264.693 C 266.348 264.365,266.808 264.096,267.084 264.096 C 267.361 264.096,267.679 263.807,267.791 263.454 C 267.903 263.100,268.264 262.811,268.593 262.811 C 268.922 262.811,269.408 262.594,269.673 262.329 C 269.938 262.064,270.242 261.847,270.349 261.847 C 270.456 261.847,271.050 261.341,271.668 260.723 C 272.286 260.104,272.923 259.598,273.081 259.598 C 273.240 259.598,273.462 259.309,273.574 258.956 C 273.686 258.602,274.006 258.313,274.285 258.313 C 274.563 258.313,275.781 257.301,276.992 256.064 C 278.202 254.827,279.333 253.815,279.506 253.815 C 279.941 253.815,288.193 245.564,288.193 245.129 C 288.193 244.935,288.699 244.299,289.317 243.716 C 289.936 243.132,290.442 242.451,290.442 242.202 C 290.442 241.782,290.859 241.376,292.032 240.652 C 293.001 240.054,292.917 234.472,291.924 233.479 C 291.462 233.017,291.084 232.546,291.084 232.432 C 291.084 232.273,287.014 228.033,284.177 225.238 C 284.000 225.063,283.329 224.395,282.685 223.751 C 282.042 223.107,281.371 222.436,281.194 222.260 C 281.017 222.083,280.351 221.443,279.714 220.838 C 279.076 220.233,278.554 219.590,278.554 219.411 C 278.554 218.927,271.552 212.048,271.060 212.048 C 270.685 212.048,269.786 213.132,266.157 217.959 C 265.612 218.684,264.925 219.476,264.631 219.718 C 264.337 219.961,264.096 220.509,264.096 220.937 C 264.096 221.745,264.515 222.283,267.334 225.106 C 268.269 226.042,270.068 227.840,270.317 228.087 C 271.255 229.019,272.129 230.038,272.129 230.201 C 272.129 230.527,273.688 231.968,274.042 231.968 C 274.226 231.968,274.378 232.117,274.378 232.300 C 274.378 232.664,275.972 234.431,278.037 236.356 C 279.006 237.260,279.065 237.568,278.378 238.140 C 278.105 238.368,277.542 238.896,277.129 239.313 C 276.715 239.730,276.232 240.216,276.055 240.392 C 275.877 240.568,275.226 241.218,274.608 241.837 C 273.989 242.455,273.339 243.106,273.162 243.282 C 269.888 246.556,270.128 246.320,268.659 247.714 C 268.005 248.335,267.072 249.046,266.586 249.295 C 266.100 249.544,265.703 249.845,265.703 249.965 C 265.703 250.459,264.520 251.478,263.716 251.676 C 263.242 251.793,262.762 252.178,262.650 252.531 C 262.538 252.884,262.233 253.173,261.972 253.173 C 261.711 253.173,261.135 253.534,260.694 253.976 C 260.252 254.418,259.712 254.779,259.494 254.779 C 259.276 254.779,258.889 255.068,258.635 255.422 C 258.380 255.775,257.924 256.064,257.621 256.064 C 257.319 256.064,256.980 256.353,256.867 256.707 C 256.755 257.060,256.394 257.349,256.066 257.349 C 255.737 257.349,255.251 257.566,254.986 257.831 C 254.721 258.096,254.349 258.313,254.159 258.313 C 253.970 258.313,253.815 258.458,253.815 258.635 C 253.815 258.811,253.526 258.956,253.173 258.956 C 252.819 258.956,252.530 259.098,252.530 259.271 C 252.530 259.444,252.169 259.677,251.727 259.788 C 251.285 259.899,250.924 260.118,250.924 260.276 C 250.924 260.433,250.635 260.562,250.281 260.562 C 249.928 260.562,249.639 260.707,249.639 260.884 C 249.639 261.060,249.422 261.205,249.157 261.205 C 248.892 261.205,248.675 261.349,248.675 261.526 C 248.675 261.703,248.386 261.847,248.032 261.847 C 247.679 261.847,247.390 261.989,247.390 262.163 C 247.390 262.336,247.028 262.568,246.586 262.679 C 246.145 262.790,245.783 263.010,245.783 263.167 C 245.783 263.325,245.494 263.454,245.141 263.454 C 244.787 263.454,244.498 263.598,244.498 263.775 C 244.498 263.952,244.281 264.096,244.016 264.096 C 243.751 264.096,243.534 264.241,243.534 264.418 C 243.534 264.594,243.112 264.739,242.597 264.739 C 242.082 264.739,241.611 264.887,241.550 265.068 C 241.490 265.249,240.864 265.489,240.158 265.601 C 239.453 265.714,238.642 266.072,238.356 266.397 C 238.070 266.722,237.528 266.988,237.151 266.988 C 236.774 266.988,236.466 267.133,236.466 267.309 C 236.466 267.486,236.104 267.631,235.663 267.631 C 235.221 267.631,234.859 267.756,234.859 267.910 C 234.859 268.063,234.248 268.270,233.501 268.371 C 232.754 268.471,232.091 268.707,232.028 268.895 C 231.966 269.083,231.493 269.237,230.977 269.237 C 230.462 269.237,230.040 269.382,230.040 269.558 C 230.040 269.735,229.679 269.880,229.237 269.880 C 228.795 269.880,228.434 270.007,228.434 270.163 C 228.434 270.319,227.495 270.548,226.349 270.671 C 225.202 270.793,224.181 271.027,224.081 271.190 C 223.980 271.353,223.400 271.486,222.792 271.486 C 222.184 271.486,221.687 271.631,221.687 271.807 C 221.687 271.984,221.108 272.129,220.402 272.129 C 219.695 272.129,219.116 272.273,219.116 272.450 C 219.116 272.627,218.478 272.771,217.697 272.771 C 216.917 272.771,216.230 272.917,216.171 273.094 C 216.108 273.283,213.762 273.505,210.521 273.627 C 207.474 273.742,204.980 273.958,204.980 274.107 C 204.980 274.256,203.823 274.378,202.410 274.378 C 200.996 274.378,199.839 274.255,199.839 274.105 C 199.839 273.955,196.338 273.751,192.058 273.652 C 186.883 273.531,184.237 273.354,184.159 273.121 C 184.095 272.929,183.332 272.771,182.463 272.771 C 181.594 272.771,180.884 272.627,180.884 272.450 C 180.884 272.273,180.233 272.129,179.438 272.129 C 178.643 272.129,177.992 271.984,177.992 271.807 C 177.992 271.631,177.422 271.486,176.726 271.486 C 176.029 271.486,175.378 271.354,175.278 271.192 C 175.178 271.030,174.013 270.796,172.689 270.672 C 171.364 270.548,170.281 270.319,170.281 270.163 C 170.281 270.007,169.920 269.880,169.478 269.880 C 169.036 269.880,168.675 269.735,168.675 269.558 C 168.675 269.382,168.313 269.237,167.871 269.237 C 167.430 269.237,167.068 269.109,167.068 268.953 C 167.068 268.796,166.273 268.569,165.301 268.448 C 164.329 268.326,163.534 268.093,163.534 267.929 C 163.534 267.765,163.173 267.631,162.731 267.631 C 162.289 267.631,161.928 267.486,161.928 267.309 C 161.928 267.133,161.639 266.988,161.285 266.988 C 160.932 266.988,160.643 266.843,160.643 266.667 C 160.643 266.490,160.353 266.345,160.000 266.345 C 159.647 266.345,159.357 266.217,159.357 266.061 C 159.357 265.904,158.707 265.678,157.912 265.559 C 157.116 265.440,156.466 265.206,156.466 265.041 C 156.466 264.875,156.249 264.739,155.984 264.739 C 155.719 264.739,155.502 264.594,155.502 264.418 C 155.502 264.241,155.172 264.096,154.770 264.096 C 154.367 264.096,153.832 263.812,153.582 263.464 C 153.309 263.086,152.570 262.748,151.744 262.624 C 150.983 262.510,150.361 262.289,150.361 262.132 C 150.361 261.976,150.072 261.847,149.719 261.847 C 149.365 261.847,149.076 261.703,149.076 261.526 C 149.076 261.349,148.926 261.205,148.742 261.205 C 148.557 261.205,148.104 260.923,147.734 260.578 C 147.364 260.234,146.648 259.861,146.141 259.750 C 145.635 259.638,145.221 259.414,145.221 259.252 C 145.221 259.089,144.964 258.956,144.649 258.956 C 144.335 258.956,143.869 258.667,143.614 258.313 C 143.360 257.960,142.973 257.671,142.755 257.671 C 142.537 257.671,141.997 257.309,141.555 256.867 C 141.114 256.426,140.601 256.064,140.416 256.064 C 140.231 256.064,140.080 255.920,140.080 255.743 C 140.080 255.566,139.791 255.422,139.438 255.422 C 139.084 255.422,138.795 255.280,138.795 255.107 C 138.795 254.933,138.434 254.701,137.992 254.590 C 137.550 254.479,137.189 254.259,137.189 254.102 C 137.189 253.944,136.936 253.812,136.627 253.808 C 136.317 253.804,135.632 253.298,135.103 252.684 C 134.575 252.069,133.924 251.565,133.658 251.563 C 133.391 251.562,132.831 251.128,132.414 250.599 C 131.996 250.071,131.487 249.639,131.282 249.639 C 130.924 249.639,130.447 249.213,128.668 247.309 C 128.214 246.823,127.560 246.426,127.214 246.426 C 126.801 246.426,126.586 246.207,126.586 245.783 C 126.586 245.430,126.435 245.141,126.250 245.141 C 125.961 245.141,125.113 244.458,123.945 243.284 C 121.116 240.439,119.149 238.479,118.812 238.168 C 117.988 237.408,117.590 236.806,117.590 236.319 C 117.590 236.046,117.452 235.823,117.284 235.823 C 116.881 235.823,114.699 233.520,114.699 233.095 C 114.699 232.994,114.193 232.404,113.574 231.786 C 112.956 231.167,112.450 230.449,112.450 230.190 C 112.450 229.931,112.305 229.719,112.129 229.719 C 111.952 229.719,111.807 229.464,111.807 229.153 C 111.807 228.841,111.446 228.315,111.004 227.983 C 110.562 227.651,110.201 227.143,110.201 226.853 C 110.201 226.564,109.912 226.118,109.558 225.863 C 109.205 225.609,108.916 225.215,108.916 224.989 C 108.916 224.763,108.771 224.578,108.594 224.578 C 108.418 224.578,108.273 224.289,108.273 223.936 C 108.273 223.582,108.138 223.293,107.973 223.293 C 107.809 223.293,107.571 222.968,107.446 222.570 C 107.320 222.173,106.949 221.614,106.621 221.328 C 106.293 221.042,106.024 220.572,106.024 220.284 C 106.024 219.995,105.880 219.759,105.703 219.759 C 105.526 219.759,105.382 219.542,105.382 219.277 C 105.382 219.012,105.237 218.795,105.060 218.795 C 104.884 218.795,104.739 218.516,104.739 218.176 C 104.739 217.835,104.522 217.339,104.257 217.074 C 103.992 216.809,103.775 216.437,103.775 216.248 C 103.775 216.059,103.631 215.904,103.454 215.904 C 103.277 215.904,103.133 215.614,103.133 215.261 C 103.133 214.908,102.991 214.618,102.817 214.618 C 102.644 214.618,102.411 214.257,102.301 213.815 C 102.190 213.373,101.970 213.012,101.813 213.012 C 101.655 213.012,101.526 212.723,101.526 212.369 C 101.526 212.016,101.382 211.727,101.205 211.727 C 101.028 211.727,100.884 211.510,100.884 211.245 C 100.884 210.980,100.739 210.763,100.562 210.763 C 100.386 210.763,100.241 210.329,100.241 209.799 C 100.241 209.269,100.103 208.835,99.934 208.835 C 99.766 208.835,99.533 208.329,99.417 207.711 C 99.301 207.092,99.077 206.586,98.920 206.586 C 98.763 206.586,98.635 206.225,98.635 205.783 C 98.635 205.341,98.490 204.980,98.313 204.980 C 98.137 204.980,97.992 204.691,97.992 204.337 C 97.992 203.984,97.847 203.695,97.671 203.695 C 97.494 203.695,97.349 203.333,97.349 202.892 C 97.349 202.450,97.221 202.088,97.065 202.088 C 96.909 202.088,96.682 201.293,96.560 200.321 C 96.439 199.349,96.205 198.554,96.041 198.554 C 95.877 198.554,95.743 198.193,95.743 197.751 C 95.743 197.309,95.598 196.948,95.422 196.948 C 95.245 196.948,95.100 196.514,95.100 195.984 C 95.100 195.454,94.956 195.020,94.779 195.020 C 94.602 195.020,94.458 194.514,94.458 193.896 C 94.458 193.277,94.328 192.771,94.169 192.771 C 94.010 192.771,93.779 191.759,93.655 190.522 C 93.530 189.285,93.299 188.273,93.140 188.273 C 92.981 188.273,92.851 187.622,92.851 186.827 C 92.851 186.032,92.707 185.382,92.530 185.382 C 92.353 185.382,92.209 184.876,92.209 184.257 C 92.209 183.639,92.078 183.133,91.919 183.133 C 91.759 183.133,91.524 180.819,91.396 177.992 C 91.268 175.165,91.037 172.851,90.883 172.851 C 90.728 172.851,90.602 171.478,90.602 169.799 C 90.602 166.290,90.600 166.288,88.675 168.354 " stroke="none" fill="#244cdc" fill-rule="evenodd"></path></g></svg>